<svg width="283" height="128" viewBox="0 0 283 128" fill="none" xmlns="http://www.w3.org/2000/svg">
<rect width="283" height="128" rx="30" fill="white"/>
<g filter="url(#filter0_d_0_1)">
<path d="M72.6729 86.3352L72.3832 87.3239H66.8604L67.1502 86.3352H72.6729ZM70.082 93L66.9627 89.1818L66.9457 88.4659H68.4968C68.9002 88.4659 69.244 88.4091 69.5281 88.2955C69.8121 88.179 70.0295 88.0057 70.18 87.7756C70.3306 87.5426 70.4059 87.25 70.4059 86.8977C70.4059 86.3778 70.2496 85.9702 69.9371 85.6747C69.6246 85.3764 69.1445 85.2273 68.4968 85.2273H66.8604L67.1502 84.2727H68.4968C69.19 84.2727 69.7582 84.3878 70.2013 84.6179C70.6474 84.8452 70.9769 85.1577 71.19 85.5554C71.4059 85.9503 71.5138 86.3977 71.5138 86.8977C71.5138 87.3494 71.4144 87.7656 71.2156 88.1463C71.0195 88.5241 70.7042 88.8281 70.2695 89.0582C69.8377 89.2884 69.2667 89.4034 68.5565 89.4034H68.5309L71.4116 92.9318V93H70.082ZM72.6729 84.2727L72.3832 85.2614L68.0366 85.2273L68.3263 84.2727H72.6729Z" fill="white"/>
</g>
<rect x="27" y="73" width="97" height="41" rx="10" fill="#E4E4E4"/>
<rect x="141" y="73" width="97" height="41" rx="10" fill="#E4E4E4"/>
<rect x="27" y="73" width="52" height="41" rx="10" fill="#111111"/>
<path d="M28.4972 30V17.6364H32.6747C33.6406 17.6364 34.4335 17.8014 35.0533 18.1314C35.6731 18.4574 36.1319 18.9061 36.4297 19.4776C36.7275 20.0491 36.8764 20.6991 36.8764 21.4276C36.8764 22.156 36.7275 22.802 36.4297 23.3654C36.1319 23.9289 35.6751 24.3716 35.0593 24.6935C34.4435 25.0115 33.6567 25.1705 32.6989 25.1705H29.3182V23.8182H32.6506C33.3106 23.8182 33.8419 23.7216 34.2443 23.5284C34.6508 23.3352 34.9446 23.0616 35.1257 22.7074C35.3108 22.3492 35.4034 21.9226 35.4034 21.4276C35.4034 20.9325 35.3108 20.4999 35.1257 20.1296C34.9406 19.7594 34.6448 19.4736 34.2383 19.2724C33.8318 19.0671 33.2945 18.9645 32.6264 18.9645H29.9943V30H28.4972ZM34.3168 24.446L37.3594 30H35.6207L32.6264 24.446H34.3168ZM42.9662 30.1932C42.0727 30.1932 41.302 29.996 40.654 29.6016C40.0101 29.2031 39.5131 28.6477 39.1629 27.9354C38.8168 27.219 38.6437 26.3859 38.6437 25.4361C38.6437 24.4863 38.8168 23.6491 39.1629 22.9247C39.5131 22.1963 40 21.6288 40.6238 21.2223C41.2517 20.8118 41.9842 20.6065 42.8213 20.6065C43.3042 20.6065 43.7812 20.687 44.252 20.848C44.7229 21.009 45.1515 21.2706 45.5379 21.6328C45.9243 21.991 46.2322 22.4659 46.4616 23.0575C46.691 23.6491 46.8057 24.3776 46.8057 25.2429V25.8466H39.6579V24.6151H45.3568C45.3568 24.0919 45.2522 23.625 45.0429 23.2145C44.8376 22.804 44.5438 22.48 44.1615 22.2425C43.7832 22.0051 43.3364 21.8864 42.8213 21.8864C42.2538 21.8864 41.7628 22.0272 41.3483 22.3089C40.9378 22.5866 40.6218 22.9489 40.4005 23.3956C40.1791 23.8423 40.0684 24.3213 40.0684 24.8324V25.6534C40.0684 26.3537 40.1892 26.9473 40.4307 27.4343C40.6762 27.9173 41.0162 28.2855 41.4509 28.5391C41.8856 28.7886 42.3907 28.9134 42.9662 28.9134C43.3405 28.9134 43.6785 28.861 43.9804 28.7564C44.2863 28.6477 44.5499 28.4867 44.7712 28.2734C44.9926 28.0561 45.1636 27.7865 45.2844 27.4645L46.6608 27.8509C46.5159 28.3177 46.2724 28.7282 45.9303 29.0824C45.5882 29.4325 45.1656 29.7062 44.6626 29.9034C44.1595 30.0966 43.594 30.1932 42.9662 30.1932ZM51.0738 30L48.2485 20.7273H49.7456L51.7499 27.8267H51.8465L53.8266 20.7273H55.3479L57.3039 27.8026H57.4005L59.4047 20.7273H60.9019L58.0766 30H56.676L54.6476 22.8764H54.5028L52.4743 30H51.0738ZM65.5141 30.2173C64.9265 30.2173 64.3933 30.1067 63.9143 29.8853C63.4354 29.6599 63.0551 29.3359 62.7733 28.9134C62.4916 28.4867 62.3508 27.9716 62.3508 27.3679C62.3508 26.8366 62.4554 26.406 62.6647 26.076C62.874 25.742 63.1537 25.4804 63.5038 25.2912C63.854 25.102 64.2403 24.9612 64.6629 24.8686C65.0895 24.772 65.5181 24.6955 65.9488 24.6392C66.5122 24.5668 66.969 24.5124 67.3192 24.4762C67.6733 24.436 67.9309 24.3696 68.0919 24.277C68.2569 24.1844 68.3394 24.0234 68.3394 23.794V23.7457C68.3394 23.1501 68.1764 22.6873 67.8504 22.3572C67.5284 22.0272 67.0394 21.8622 66.3834 21.8622C65.7033 21.8622 65.17 22.0111 64.7836 22.3089C64.3973 22.6068 64.1256 22.9247 63.9687 23.2628L62.6164 22.7798C62.8579 22.2164 63.1798 21.7777 63.5823 21.4638C63.9888 21.1458 64.4315 20.9245 64.9104 20.7997C65.3934 20.6709 65.8683 20.6065 66.3351 20.6065C66.633 20.6065 66.9751 20.6428 67.3614 20.7152C67.7518 20.7836 68.1281 20.9265 68.4903 21.1438C68.8566 21.3612 69.1604 21.6892 69.4019 22.1278C69.6434 22.5665 69.7641 23.1541 69.7641 23.8906V30H68.3394V28.7443H68.267C68.1704 28.9455 68.0094 29.1609 67.784 29.3903C67.5586 29.6197 67.2588 29.8149 66.8845 29.9759C66.5102 30.1368 66.0534 30.2173 65.5141 30.2173ZM65.7314 28.9375C66.2949 28.9375 66.7698 28.8268 67.1562 28.6055C67.5465 28.3841 67.8403 28.0984 68.0376 27.7482C68.2388 27.3981 68.3394 27.0298 68.3394 26.6435V25.3395C68.279 25.4119 68.1462 25.4783 67.941 25.5387C67.7397 25.5951 67.5063 25.6454 67.2407 25.6896C66.9791 25.7299 66.7235 25.7661 66.474 25.7983C66.2285 25.8265 66.0293 25.8506 65.8763 25.8707C65.5061 25.919 65.1599 25.9975 64.838 26.1062C64.52 26.2108 64.2625 26.3698 64.0653 26.5831C63.8721 26.7924 63.7755 27.0781 63.7755 27.4403C63.7755 27.9354 63.9586 28.3097 64.3248 28.5632C64.6951 28.8127 65.164 28.9375 65.7314 28.9375ZM72.3645 30V20.7273H73.7409V22.1278H73.8375C74.0066 21.669 74.3124 21.2968 74.7551 21.011C75.1979 20.7253 75.6969 20.5824 76.2523 20.5824C76.3569 20.5824 76.4877 20.5844 76.6447 20.5884C76.8017 20.5924 76.9204 20.5985 77.0009 20.6065V22.0554C76.9526 22.0433 76.8419 22.0252 76.6689 22.0011C76.4998 21.9729 76.3207 21.9588 76.1316 21.9588C75.6808 21.9588 75.2784 22.0534 74.9242 22.2425C74.574 22.4277 74.2963 22.6853 74.0911 23.0153C73.8899 23.3413 73.7892 23.7135 73.7892 24.1321V30H72.3645ZM81.9089 30.1932C81.1362 30.1932 80.454 29.998 79.8624 29.6076C79.2708 29.2132 78.8079 28.6578 78.4739 27.9414C78.1399 27.221 77.9728 26.3698 77.9728 25.3878C77.9728 24.4138 78.1399 23.5687 78.4739 22.8523C78.8079 22.1359 79.2728 21.5825 79.8684 21.1921C80.4641 20.8017 81.1523 20.6065 81.9331 20.6065C82.5368 20.6065 83.0137 20.7071 83.3638 20.9084C83.718 21.1056 83.9876 21.331 84.1728 21.5845C84.3619 21.834 84.5088 22.0393 84.6135 22.2003H84.7342V17.6364H86.1589V30H84.7825V28.5753H84.6135C84.5088 28.7443 84.3599 28.9576 84.1667 29.2152C83.9735 29.4687 83.6979 29.6961 83.3397 29.8974C82.9815 30.0946 82.5046 30.1932 81.9089 30.1932ZM82.1021 28.9134C82.6736 28.9134 83.1565 28.7644 83.551 28.4666C83.9454 28.1648 84.2452 27.7482 84.4505 27.217C84.6557 26.6817 84.7583 26.0639 84.7583 25.3636C84.7583 24.6714 84.6577 24.0657 84.4565 23.5465C84.2553 23.0233 83.9574 22.6168 83.563 22.3271C83.1686 22.0333 82.6816 21.8864 82.1021 21.8864C81.4984 21.8864 80.9953 22.0413 80.5929 22.3512C80.1944 22.6571 79.8946 23.0736 79.6934 23.6009C79.4962 24.1241 79.3975 24.7116 79.3975 25.3636C79.3975 26.0237 79.4982 26.6233 79.6994 27.1626C79.9047 27.6979 80.2065 28.1245 80.6049 28.4425C81.0074 28.7564 81.5065 28.9134 82.1021 28.9134ZM101.33 20.7273L97.9007 30H96.4519L93.0229 20.7273H94.5684L97.128 28.1165H97.2246L99.7843 20.7273H101.33ZM105.657 30.2173C105.069 30.2173 104.536 30.1067 104.057 29.8853C103.578 29.6599 103.198 29.3359 102.916 28.9134C102.634 28.4867 102.493 27.9716 102.493 27.3679C102.493 26.8366 102.598 26.406 102.807 26.076C103.017 25.742 103.296 25.4804 103.646 25.2912C103.997 25.102 104.383 24.9612 104.805 24.8686C105.232 24.772 105.661 24.6955 106.091 24.6392C106.655 24.5668 107.112 24.5124 107.462 24.4762C107.816 24.436 108.073 24.3696 108.234 24.277C108.399 24.1844 108.482 24.0234 108.482 23.794V23.7457C108.482 23.1501 108.319 22.6873 107.993 22.3572C107.671 22.0272 107.182 21.8622 106.526 21.8622C105.846 21.8622 105.313 22.0111 104.926 22.3089C104.54 22.6068 104.268 22.9247 104.111 23.2628L102.759 22.7798C103 22.2164 103.322 21.7777 103.725 21.4638C104.131 21.1458 104.574 20.9245 105.053 20.7997C105.536 20.6709 106.011 20.6065 106.478 20.6065C106.776 20.6065 107.118 20.6428 107.504 20.7152C107.894 20.7836 108.271 20.9265 108.633 21.1438C108.999 21.3612 109.303 21.6892 109.544 22.1278C109.786 22.5665 109.907 23.1541 109.907 23.8906V30H108.482V28.7443H108.41C108.313 28.9455 108.152 29.1609 107.927 29.3903C107.701 29.6197 107.401 29.8149 107.027 29.9759C106.653 30.1368 106.196 30.2173 105.657 30.2173ZM105.874 28.9375C106.437 28.9375 106.912 28.8268 107.299 28.6055C107.689 28.3841 107.983 28.0984 108.18 27.7482C108.381 27.3981 108.482 27.0298 108.482 26.6435V25.3395C108.422 25.4119 108.289 25.4783 108.084 25.5387C107.882 25.5951 107.649 25.6454 107.383 25.6896C107.122 25.7299 106.866 25.7661 106.617 25.7983C106.371 25.8265 106.172 25.8506 106.019 25.8707C105.649 25.919 105.303 25.9975 104.981 26.1062C104.663 26.2108 104.405 26.3698 104.208 26.5831C104.015 26.7924 103.918 27.0781 103.918 27.4403C103.918 27.9354 104.101 28.3097 104.467 28.5632C104.838 28.8127 105.307 28.9375 105.874 28.9375ZM113.932 17.6364V30H112.507V17.6364H113.932ZM122.385 26.2088V20.7273H123.81V30H122.385V28.4304H122.288C122.071 28.9013 121.733 29.3017 121.274 29.6317C120.815 29.9577 120.236 30.1207 119.536 30.1207C118.956 30.1207 118.441 29.994 117.99 29.7404C117.539 29.4828 117.185 29.0965 116.928 28.5813C116.67 28.0621 116.541 27.4081 116.541 26.6193V20.7273H117.966V26.5227C117.966 27.1989 118.155 27.7382 118.533 28.1406C118.916 28.5431 119.403 28.7443 119.994 28.7443C120.349 28.7443 120.709 28.6538 121.075 28.4727C121.445 28.2915 121.755 28.0138 122.005 27.6396C122.258 27.2653 122.385 26.7884 122.385 26.2088ZM130.307 30.1932C129.414 30.1932 128.643 29.996 127.995 29.6016C127.351 29.2031 126.854 28.6477 126.504 27.9354C126.158 27.219 125.985 26.3859 125.985 25.4361C125.985 24.4863 126.158 23.6491 126.504 22.9247C126.854 22.1963 127.341 21.6288 127.965 21.2223C128.593 20.8118 129.325 20.6065 130.162 20.6065C130.645 20.6065 131.122 20.687 131.593 20.848C132.064 21.009 132.492 21.2706 132.879 21.6328C133.265 21.991 133.573 22.4659 133.802 23.0575C134.032 23.6491 134.146 24.3776 134.146 25.2429V25.8466H126.999V24.6151H132.698C132.698 24.0919 132.593 23.625 132.384 23.2145C132.178 22.804 131.885 22.48 131.502 22.2425C131.124 22.0051 130.677 21.8864 130.162 21.8864C129.595 21.8864 129.104 22.0272 128.689 22.3089C128.279 22.5866 127.963 22.9489 127.741 23.3956C127.52 23.8423 127.409 24.3213 127.409 24.8324V25.6534C127.409 26.3537 127.53 26.9473 127.771 27.4343C128.017 27.9173 128.357 28.2855 128.792 28.5391C129.226 28.7886 129.731 28.9134 130.307 28.9134C130.681 28.9134 131.019 28.861 131.321 28.7564C131.627 28.6477 131.891 28.4867 132.112 28.2734C132.333 28.0561 132.504 27.7865 132.625 27.4645L134.002 27.8509C133.857 28.3177 133.613 28.7282 133.271 29.0824C132.929 29.4325 132.506 29.7062 132.003 29.9034C131.5 30.0966 130.935 30.1932 130.307 30.1932ZM141.095 33.4773V20.7273H142.471V22.2003H142.64C142.745 22.0393 142.89 21.834 143.075 21.5845C143.264 21.331 143.534 21.1056 143.884 20.9084C144.238 20.7071 144.717 20.6065 145.321 20.6065C146.102 20.6065 146.79 20.8017 147.385 21.1921C147.981 21.5825 148.446 22.1359 148.78 22.8523C149.114 23.5687 149.281 24.4138 149.281 25.3878C149.281 26.3698 149.114 27.221 148.78 27.9414C148.446 28.6578 147.983 29.2132 147.392 29.6076C146.8 29.998 146.118 30.1932 145.345 30.1932C144.749 30.1932 144.272 30.0946 143.914 29.8974C143.556 29.6961 143.28 29.4687 143.087 29.2152C142.894 28.9576 142.745 28.7443 142.64 28.5753H142.52V33.4773H141.095ZM142.496 25.3636C142.496 26.0639 142.598 26.6817 142.803 27.217C143.009 27.7482 143.309 28.1648 143.703 28.4666C144.097 28.7644 144.58 28.9134 145.152 28.9134C145.747 28.9134 146.244 28.7564 146.643 28.4425C147.045 28.1245 147.347 27.6979 147.548 27.1626C147.754 26.6233 147.856 26.0237 147.856 25.3636C147.856 24.7116 147.756 24.1241 147.555 23.6009C147.357 23.0736 147.057 22.6571 146.655 22.3512C146.257 22.0413 145.756 21.8864 145.152 21.8864C144.572 21.8864 144.085 22.0333 143.691 22.3271C143.296 22.6168 142.999 23.0233 142.797 23.5465C142.596 24.0657 142.496 24.6714 142.496 25.3636ZM155.342 30.1932C154.449 30.1932 153.678 29.996 153.03 29.6016C152.386 29.2031 151.889 28.6477 151.539 27.9354C151.193 27.219 151.02 26.3859 151.02 25.4361C151.02 24.4863 151.193 23.6491 151.539 22.9247C151.889 22.1963 152.376 21.6288 153 21.2223C153.628 20.8118 154.36 20.6065 155.197 20.6065C155.68 20.6065 156.157 20.687 156.628 20.848C157.099 21.009 157.528 21.2706 157.914 21.6328C158.3 21.991 158.608 22.4659 158.838 23.0575C159.067 23.6491 159.182 24.3776 159.182 25.2429V25.8466H152.034V24.6151H157.733C157.733 24.0919 157.628 23.625 157.419 23.2145C157.214 22.804 156.92 22.48 156.537 22.2425C156.159 22.0051 155.712 21.8864 155.197 21.8864C154.63 21.8864 154.139 22.0272 153.724 22.3089C153.314 22.5866 152.998 22.9489 152.776 23.3956C152.555 23.8423 152.444 24.3213 152.444 24.8324V25.6534C152.444 26.3537 152.565 26.9473 152.807 27.4343C153.052 27.9173 153.392 28.2855 153.827 28.5391C154.262 28.7886 154.767 28.9134 155.342 28.9134C155.716 28.9134 156.055 28.861 156.356 28.7564C156.662 28.6477 156.926 28.4867 157.147 28.2734C157.369 28.0561 157.54 27.7865 157.66 27.4645L159.037 27.8509C158.892 28.3177 158.648 28.7282 158.306 29.0824C157.964 29.4325 157.542 29.7062 157.039 29.9034C156.535 30.0966 155.97 30.1932 155.342 30.1932ZM161.349 30V20.7273H162.725V22.1278H162.822C162.991 21.669 163.297 21.2968 163.74 21.011C164.182 20.7253 164.681 20.5824 165.237 20.5824C165.341 20.5824 165.472 20.5844 165.629 20.5884C165.786 20.5924 165.905 20.5985 165.985 20.6065V22.0554C165.937 22.0433 165.826 22.0252 165.653 22.0011C165.484 21.9729 165.305 21.9588 165.116 21.9588C164.665 21.9588 164.263 22.0534 163.909 22.2425C163.558 22.4277 163.281 22.6853 163.075 23.0153C162.874 23.3413 162.774 23.7135 162.774 24.1321V30H161.349ZM172.455 30V20.7273H173.832V22.1278H173.928C174.097 21.669 174.403 21.2968 174.846 21.011C175.289 20.7253 175.788 20.5824 176.343 20.5824C176.448 20.5824 176.579 20.5844 176.736 20.5884C176.892 20.5924 177.011 20.5985 177.092 20.6065V22.0554C177.043 22.0433 176.933 22.0252 176.76 22.0011C176.591 21.9729 176.412 21.9588 176.222 21.9588C175.772 21.9588 175.369 22.0534 175.015 22.2425C174.665 22.4277 174.387 22.6853 174.182 23.0153C173.981 23.3413 173.88 23.7135 173.88 24.1321V30H172.455ZM182.386 30.1932C181.493 30.1932 180.722 29.996 180.074 29.6016C179.43 29.2031 178.933 28.6477 178.583 27.9354C178.237 27.219 178.064 26.3859 178.064 25.4361C178.064 24.4863 178.237 23.6491 178.583 22.9247C178.933 22.1963 179.42 21.6288 180.044 21.2223C180.672 20.8118 181.404 20.6065 182.241 20.6065C182.724 20.6065 183.201 20.687 183.672 20.848C184.143 21.009 184.571 21.2706 184.958 21.6328C185.344 21.991 185.652 22.4659 185.881 23.0575C186.111 23.6491 186.226 24.3776 186.226 25.2429V25.8466H179.078V24.6151H184.777C184.777 24.0919 184.672 23.625 184.463 23.2145C184.258 22.804 183.964 22.48 183.581 22.2425C183.203 22.0051 182.756 21.8864 182.241 21.8864C181.674 21.8864 181.183 22.0272 180.768 22.3089C180.358 22.5866 180.042 22.9489 179.82 23.3956C179.599 23.8423 179.488 24.3213 179.488 24.8324V25.6534C179.488 26.3537 179.609 26.9473 179.851 27.4343C180.096 27.9173 180.436 28.2855 180.871 28.5391C181.305 28.7886 181.811 28.9134 182.386 28.9134C182.76 28.9134 183.098 28.861 183.4 28.7564C183.706 28.6477 183.97 28.4867 184.191 28.2734C184.412 28.0561 184.584 27.7865 184.704 27.4645L186.081 27.8509C185.936 28.3177 185.692 28.7282 185.35 29.0824C185.008 29.4325 184.586 29.7062 184.082 29.9034C183.579 30.0966 183.014 30.1932 182.386 30.1932ZM192.522 20.7273V21.9347H187.524V20.7273H192.522ZM189.021 30V19.4474C189.021 18.9162 189.145 18.4735 189.395 18.1193C189.645 17.7652 189.968 17.4995 190.367 17.3224C190.765 17.1454 191.186 17.0568 191.629 17.0568C191.979 17.0568 192.265 17.085 192.486 17.1413C192.707 17.1977 192.872 17.25 192.981 17.2983L192.57 18.5298C192.498 18.5057 192.397 18.4755 192.269 18.4393C192.144 18.4031 191.979 18.3849 191.774 18.3849C191.303 18.3849 190.963 18.5037 190.753 18.7411C190.548 18.9786 190.445 19.3267 190.445 19.7855V30H189.021ZM198.025 30.1932C197.131 30.1932 196.361 29.996 195.713 29.6016C195.069 29.2031 194.572 28.6477 194.222 27.9354C193.875 27.219 193.702 26.3859 193.702 25.4361C193.702 24.4863 193.875 23.6491 194.222 22.9247C194.572 22.1963 195.059 21.6288 195.682 21.2223C196.31 20.8118 197.043 20.6065 197.88 20.6065C198.363 20.6065 198.84 20.687 199.311 20.848C199.782 21.009 200.21 21.2706 200.597 21.6328C200.983 21.991 201.291 22.4659 201.52 23.0575C201.75 23.6491 201.864 24.3776 201.864 25.2429V25.8466H194.717V24.6151H200.415C200.415 24.0919 200.311 23.625 200.101 23.2145C199.896 22.804 199.602 22.48 199.22 22.2425C198.842 22.0051 198.395 21.8864 197.88 21.8864C197.312 21.8864 196.821 22.0272 196.407 22.3089C195.996 22.5866 195.68 22.9489 195.459 23.3956C195.238 23.8423 195.127 24.3213 195.127 24.8324V25.6534C195.127 26.3537 195.248 26.9473 195.489 27.4343C195.735 27.9173 196.075 28.2855 196.509 28.5391C196.944 28.7886 197.449 28.9134 198.025 28.9134C198.399 28.9134 198.737 28.861 199.039 28.7564C199.345 28.6477 199.608 28.4867 199.83 28.2734C200.051 28.0561 200.222 27.7865 200.343 27.4645L201.719 27.8509C201.574 28.3177 201.331 28.7282 200.989 29.0824C200.647 29.4325 200.224 29.7062 199.721 29.9034C199.218 30.0966 198.653 30.1932 198.025 30.1932ZM204.032 30V20.7273H205.408V22.1278H205.505C205.674 21.669 205.979 21.2968 206.422 21.011C206.865 20.7253 207.364 20.5824 207.919 20.5824C208.024 20.5824 208.155 20.5844 208.312 20.5884C208.469 20.5924 208.587 20.5985 208.668 20.6065V22.0554C208.62 22.0433 208.509 22.0252 208.336 22.0011C208.167 21.9729 207.988 21.9588 207.799 21.9588C207.348 21.9588 206.945 22.0534 206.591 22.2425C206.241 22.4277 205.963 22.6853 205.758 23.0153C205.557 23.3413 205.456 23.7135 205.456 24.1321V30H204.032ZM210.357 30V20.7273H211.733V22.1278H211.83C211.999 21.669 212.305 21.2968 212.747 21.011C213.19 20.7253 213.689 20.5824 214.244 20.5824C214.349 20.5824 214.48 20.5844 214.637 20.5884C214.794 20.5924 214.913 20.5985 214.993 20.6065V22.0554C214.945 22.0433 214.834 22.0252 214.661 22.0011C214.492 21.9729 214.313 21.9588 214.124 21.9588C213.673 21.9588 213.271 22.0534 212.916 22.2425C212.566 22.4277 212.289 22.6853 212.083 23.0153C211.882 23.3413 211.781 23.7135 211.781 24.1321V30H210.357ZM220.287 30.1932C219.394 30.1932 218.623 29.996 217.975 29.6016C217.331 29.2031 216.834 28.6477 216.484 27.9354C216.138 27.219 215.965 26.3859 215.965 25.4361C215.965 24.4863 216.138 23.6491 216.484 22.9247C216.834 22.1963 217.321 21.6288 217.945 21.2223C218.573 20.8118 219.305 20.6065 220.143 20.6065C220.626 20.6065 221.102 20.687 221.573 20.848C222.044 21.009 222.473 21.2706 222.859 21.6328C223.246 21.991 223.553 22.4659 223.783 23.0575C224.012 23.6491 224.127 24.3776 224.127 25.2429V25.8466H216.979V24.6151H222.678C222.678 24.0919 222.573 23.625 222.364 23.2145C222.159 22.804 221.865 22.48 221.483 22.2425C221.104 22.0051 220.658 21.8864 220.143 21.8864C219.575 21.8864 219.084 22.0272 218.67 22.3089C218.259 22.5866 217.943 22.9489 217.722 23.3956C217.5 23.8423 217.39 24.3213 217.39 24.8324V25.6534C217.39 26.3537 217.51 26.9473 217.752 27.4343C217.997 27.9173 218.338 28.2855 218.772 28.5391C219.207 28.7886 219.712 28.9134 220.287 28.9134C220.662 28.9134 221 28.861 221.302 28.7564C221.608 28.6477 221.871 28.4867 222.093 28.2734C222.314 28.0561 222.485 27.7865 222.606 27.4645L223.982 27.8509C223.837 28.3177 223.594 28.7282 223.252 29.0824C222.91 29.4325 222.487 29.7062 221.984 29.9034C221.481 30.0966 220.915 30.1932 220.287 30.1932ZM229.796 30.1932C229.023 30.1932 228.341 29.998 227.749 29.6076C227.157 29.2132 226.695 28.6578 226.361 27.9414C226.027 27.221 225.86 26.3698 225.86 25.3878C225.86 24.4138 226.027 23.5687 226.361 22.8523C226.695 22.1359 227.16 21.5825 227.755 21.1921C228.351 20.8017 229.039 20.6065 229.82 20.6065C230.423 20.6065 230.9 20.7071 231.251 20.9084C231.605 21.1056 231.874 21.331 232.059 21.5845C232.249 21.834 232.396 22.0393 232.5 22.2003H232.621V17.6364H234.046V30H232.669V28.5753H232.5C232.396 28.7443 232.247 28.9576 232.053 29.2152C231.86 29.4687 231.585 29.6961 231.226 29.8974C230.868 30.0946 230.391 30.1932 229.796 30.1932ZM229.989 28.9134C230.56 28.9134 231.043 28.7644 231.438 28.4666C231.832 28.1648 232.132 27.7482 232.337 27.217C232.542 26.6817 232.645 26.0639 232.645 25.3636C232.645 24.6714 232.544 24.0657 232.343 23.5465C232.142 23.0233 231.844 22.6168 231.45 22.3271C231.055 22.0333 230.568 21.8864 229.989 21.8864C229.385 21.8864 228.882 22.0413 228.48 22.3512C228.081 22.6571 227.781 23.0736 227.58 23.6009C227.383 24.1241 227.284 24.7116 227.284 25.3636C227.284 26.0237 227.385 26.6233 227.586 27.1626C227.791 27.6979 228.093 28.1245 228.492 28.4425C228.894 28.7564 229.393 28.9134 229.989 28.9134ZM34.8722 43.804L33.5923 44.1662C33.5118 43.9529 33.3931 43.7456 33.2362 43.5444C33.0832 43.3391 32.8739 43.1701 32.6083 43.0373C32.3427 42.9045 32.0026 42.8381 31.5881 42.8381C31.0206 42.8381 30.5477 42.9689 30.1694 43.2305C29.7951 43.488 29.608 43.8161 29.608 44.2145C29.608 44.5687 29.7367 44.8484 29.9943 45.0536C30.2519 45.2589 30.6544 45.4299 31.2017 45.5668L32.5781 45.9048C33.4072 46.1061 34.025 46.4139 34.4315 46.8285C34.838 47.239 35.0412 47.7682 35.0412 48.4162C35.0412 48.9474 34.8883 49.4223 34.5824 49.8409C34.2805 50.2595 33.858 50.5895 33.3146 50.831C32.7713 51.0724 32.1394 51.1932 31.419 51.1932C30.4732 51.1932 29.6905 50.9879 29.0707 50.5774C28.4509 50.1669 28.0585 49.5672 27.8935 48.7784L29.2457 48.4403C29.3745 48.9394 29.618 49.3137 29.9762 49.5632C30.3384 49.8127 30.8113 49.9375 31.3949 49.9375C32.0589 49.9375 32.5862 49.7966 32.9766 49.5149C33.371 49.2292 33.5682 48.8871 33.5682 48.4886C33.5682 48.1667 33.4555 47.897 33.2301 47.6797C33.0047 47.4583 32.6586 47.2933 32.1918 47.1847L30.6463 46.8224C29.7971 46.6212 29.1733 46.3093 28.7749 45.8867C28.3804 45.4601 28.1832 44.9268 28.1832 44.2869C28.1832 43.7637 28.3301 43.3009 28.6239 42.8984C28.9218 42.496 29.3262 42.18 29.8374 41.9506C30.3525 41.7212 30.9361 41.6065 31.5881 41.6065C32.5057 41.6065 33.2261 41.8078 33.7493 42.2102C34.2765 42.6127 34.6508 43.1439 34.8722 43.804ZM43.0296 47.2088V41.7273H44.4543V51H43.0296V49.4304H42.933C42.7156 49.9013 42.3776 50.3017 41.9188 50.6317C41.46 50.9577 40.8804 51.1207 40.1801 51.1207C39.6006 51.1207 39.0854 50.994 38.6347 50.7404C38.1839 50.4828 37.8298 50.0965 37.5722 49.5813C37.3146 49.0621 37.1858 48.4081 37.1858 47.6193V41.7273H38.6105V47.5227C38.6105 48.1989 38.7997 48.7382 39.178 49.1406C39.5603 49.5431 40.0473 49.7443 40.6389 49.7443C40.9931 49.7443 41.3533 49.6538 41.7195 49.4727C42.0898 49.2915 42.3997 49.0138 42.6492 48.6396C42.9028 48.2653 43.0296 47.7884 43.0296 47.2088ZM47.2569 51V38.6364H48.6816V43.2003H48.8024C48.907 43.0393 49.0519 42.834 49.237 42.5845C49.4262 42.331 49.6958 42.1056 50.046 41.9084C50.4002 41.7071 50.8791 41.6065 51.4828 41.6065C52.2636 41.6065 52.9518 41.8017 53.5474 42.1921C54.1431 42.5825 54.6079 43.1359 54.9419 43.8523C55.276 44.5687 55.443 45.4138 55.443 46.3878C55.443 47.3698 55.276 48.221 54.9419 48.9414C54.6079 49.6578 54.1451 50.2132 53.5534 50.6076C52.9618 50.998 52.2797 51.1932 51.5069 51.1932C50.9113 51.1932 50.4344 51.0946 50.0762 50.8974C49.718 50.6961 49.4423 50.4687 49.2491 50.2152C49.0559 49.9576 48.907 49.7443 48.8024 49.5753H48.6333V51H47.2569ZM48.6575 46.3636C48.6575 47.0639 48.7601 47.6817 48.9654 48.217C49.1706 48.7482 49.4705 49.1648 49.8649 49.4666C50.2593 49.7644 50.7422 49.9134 51.3137 49.9134C51.9094 49.9134 52.4064 49.7564 52.8049 49.4425C53.2073 49.1245 53.5092 48.6979 53.7104 48.1626C53.9157 47.6233 54.0183 47.0237 54.0183 46.3636C54.0183 45.7116 53.9177 45.1241 53.7164 44.6009C53.5192 44.0736 53.2194 43.6571 52.8169 43.3512C52.4185 43.0413 51.9174 42.8864 51.3137 42.8864C50.7342 42.8864 50.2472 43.0333 49.8528 43.3271C49.4584 43.6168 49.1606 44.0233 48.9593 44.5465C48.7581 45.0657 48.6575 45.6714 48.6575 46.3636ZM64.1905 43.804L62.9107 44.1662C62.8302 43.9529 62.7115 43.7456 62.5545 43.5444C62.4016 43.3391 62.1923 43.1701 61.9267 43.0373C61.661 42.9045 61.321 42.8381 60.9064 42.8381C60.339 42.8381 59.8661 42.9689 59.4877 43.2305C59.1135 43.488 58.9263 43.8161 58.9263 44.2145C58.9263 44.5687 59.0551 44.8484 59.3127 45.0536C59.5703 45.2589 59.9727 45.4299 60.5201 45.5668L61.8965 45.9048C62.7256 46.1061 63.3433 46.4139 63.7498 46.8285C64.1563 47.239 64.3596 47.7682 64.3596 48.4162C64.3596 48.9474 64.2066 49.4223 63.9007 49.8409C63.5989 50.2595 63.1763 50.5895 62.633 50.831C62.0897 51.0724 61.4578 51.1932 60.7374 51.1932C59.7916 51.1932 59.0088 50.9879 58.389 50.5774C57.7692 50.1669 57.3768 49.5672 57.2118 48.7784L58.5641 48.4403C58.6929 48.9394 58.9364 49.3137 59.2946 49.5632C59.6568 49.8127 60.1297 49.9375 60.7132 49.9375C61.3773 49.9375 61.9045 49.7966 62.2949 49.5149C62.6893 49.2292 62.8865 48.8871 62.8865 48.4886C62.8865 48.1667 62.7739 47.897 62.5485 47.6797C62.3231 47.4583 61.977 47.2933 61.5101 47.1847L59.9647 46.8224C59.1155 46.6212 58.4917 46.3093 58.0932 45.8867C57.6988 45.4601 57.5016 44.9268 57.5016 44.2869C57.5016 43.7637 57.6485 43.3009 57.9423 42.8984C58.2401 42.496 58.6446 42.18 59.1557 41.9506C59.6709 41.7212 60.2544 41.6065 60.9064 41.6065C61.824 41.6065 62.5444 41.8078 63.0676 42.2102C63.5949 42.6127 63.9692 43.1439 64.1905 43.804ZM70.2712 51.1932C69.4019 51.1932 68.6533 50.9879 68.0255 50.5774C67.3976 50.1669 66.9147 49.6014 66.5766 48.881C66.2385 48.1606 66.0695 47.3376 66.0695 46.4119C66.0695 45.4702 66.2426 44.6391 66.5887 43.9187C66.9388 43.1942 67.4258 42.6288 68.0496 42.2223C68.6775 41.8118 69.4099 41.6065 70.2471 41.6065C70.8991 41.6065 71.4867 41.7273 72.0099 41.9688C72.5331 42.2102 72.9617 42.5483 73.2957 42.983C73.6298 43.4176 73.837 43.9247 73.9175 44.5043H72.4928C72.3841 44.0817 72.1427 43.7074 71.7684 43.3814C71.3981 43.0514 70.8991 42.8864 70.2712 42.8864C69.7158 42.8864 69.2288 43.0312 68.8103 43.321C68.3957 43.6068 68.0718 44.0112 67.8383 44.5344C67.6089 45.0536 67.4942 45.6634 67.4942 46.3636C67.4942 47.08 67.6069 47.7038 67.8323 48.2351C68.0617 48.7663 68.3837 49.1789 68.7982 49.4727C69.2168 49.7665 69.7078 49.9134 70.2712 49.9134C70.6415 49.9134 70.9775 49.849 71.2794 49.7202C71.5812 49.5914 71.8368 49.4062 72.0461 49.1648C72.2554 48.9233 72.4043 48.6335 72.4928 48.2955H73.9175C73.837 48.8428 73.6378 49.3358 73.3199 49.7745C73.0059 50.2092 72.5894 50.5553 72.0702 50.8129C71.5551 51.0664 70.9554 51.1932 70.2712 51.1932ZM76.0003 51V41.7273H77.3767V43.1278H77.4733C77.6423 42.669 77.9482 42.2968 78.3909 42.011C78.8336 41.7253 79.3327 41.5824 79.8881 41.5824C79.9927 41.5824 80.1235 41.5844 80.2805 41.5884C80.4374 41.5924 80.5561 41.5985 80.6366 41.6065V43.0554C80.5883 43.0433 80.4777 43.0252 80.3046 43.0011C80.1356 42.9729 79.9565 42.9588 79.7673 42.9588C79.3166 42.9588 78.9141 43.0534 78.5599 43.2425C78.2098 43.4277 77.9321 43.6853 77.7268 44.0153C77.5256 44.3413 77.425 44.7135 77.425 45.1321V51H76.0003ZM82.3255 51V41.7273H83.7502V51H82.3255ZM83.0499 40.1818C82.7722 40.1818 82.5327 40.0872 82.3315 39.8981C82.1343 39.7089 82.0357 39.4815 82.0357 39.2159C82.0357 38.9503 82.1343 38.7229 82.3315 38.5337C82.5327 38.3446 82.7722 38.25 83.0499 38.25C83.3276 38.25 83.565 38.3446 83.7623 38.5337C83.9635 38.7229 84.0641 38.9503 84.0641 39.2159C84.0641 39.4815 83.9635 39.7089 83.7623 39.8981C83.565 40.0872 83.3276 40.1818 83.0499 40.1818ZM86.3596 54.4773V41.7273H87.7361V43.2003H87.9051C88.0097 43.0393 88.1546 42.834 88.3398 42.5845C88.5289 42.331 88.7986 42.1056 89.1487 41.9084C89.5029 41.7071 89.9818 41.6065 90.5855 41.6065C91.3663 41.6065 92.0545 41.8017 92.6501 42.1921C93.2458 42.5825 93.7106 43.1359 94.0447 43.8523C94.3787 44.5687 94.5457 45.4138 94.5457 46.3878C94.5457 47.3698 94.3787 48.221 94.0447 48.9414C93.7106 49.6578 93.2478 50.2132 92.6562 50.6076C92.0645 50.998 91.3824 51.1932 90.6096 51.1932C90.014 51.1932 89.5371 51.0946 89.1789 50.8974C88.8207 50.6961 88.545 50.4687 88.3518 50.2152C88.1586 49.9576 88.0097 49.7443 87.9051 49.5753H87.7844V54.4773H86.3596ZM87.7602 46.3636C87.7602 47.0639 87.8628 47.6817 88.0681 48.217C88.2733 48.7482 88.5732 49.1648 88.9676 49.4666C89.362 49.7644 89.845 49.9134 90.4165 49.9134C91.0121 49.9134 91.5091 49.7564 91.9076 49.4425C92.31 49.1245 92.6119 48.6979 92.8131 48.1626C93.0184 47.6233 93.121 47.0237 93.121 46.3636C93.121 45.7116 93.0204 45.1241 92.8192 44.6009C92.622 44.0736 92.3221 43.6571 91.9197 43.3512C91.5212 43.0413 91.0202 42.8864 90.4165 42.8864C89.8369 42.8864 89.3499 43.0333 88.9555 43.3271C88.5611 43.6168 88.2633 44.0233 88.0621 44.5465C87.8608 45.0657 87.7602 45.6714 87.7602 46.3636ZM100.752 41.7273V42.9347H95.9463V41.7273H100.752ZM97.3469 39.5057H98.7716V48.3438C98.7716 48.7462 98.8299 49.0481 98.9466 49.2493C99.0674 49.4465 99.2203 49.5793 99.4055 49.6477C99.5946 49.7121 99.7938 49.7443 100.003 49.7443C100.16 49.7443 100.289 49.7363 100.389 49.7202C100.49 49.7 100.571 49.6839 100.631 49.6719L100.921 50.9517C100.824 50.9879 100.689 51.0241 100.516 51.0604C100.343 51.1006 100.124 51.1207 99.8582 51.1207C99.4558 51.1207 99.0613 51.0342 98.675 50.8612C98.2926 50.6881 97.9747 50.4245 97.7211 50.0703C97.4716 49.7161 97.3469 49.2694 97.3469 48.7301V39.5057ZM102.895 51V41.7273H104.32V51H102.895ZM103.619 40.1818C103.342 40.1818 103.102 40.0872 102.901 39.8981C102.704 39.7089 102.605 39.4815 102.605 39.2159C102.605 38.9503 102.704 38.7229 102.901 38.5337C103.102 38.3446 103.342 38.25 103.619 38.25C103.897 38.25 104.134 38.3446 104.332 38.5337C104.533 38.7229 104.633 38.9503 104.633 39.2159C104.633 39.4815 104.533 39.7089 104.332 39.8981C104.134 40.0872 103.897 40.1818 103.619 40.1818ZM110.696 51.1932C109.859 51.1932 109.124 50.994 108.493 50.5955C107.865 50.1971 107.374 49.6397 107.02 48.9233C106.669 48.2069 106.494 47.3698 106.494 46.4119C106.494 45.446 106.669 44.6029 107.02 43.8825C107.374 43.162 107.865 42.6026 108.493 42.2042C109.124 41.8058 109.859 41.6065 110.696 41.6065C111.533 41.6065 112.266 41.8058 112.893 42.2042C113.525 42.6026 114.016 43.162 114.366 43.8825C114.721 44.6029 114.898 45.446 114.898 46.4119C114.898 47.3698 114.721 48.2069 114.366 48.9233C114.016 49.6397 113.525 50.1971 112.893 50.5955C112.266 50.994 111.533 51.1932 110.696 51.1932ZM110.696 49.9134C111.332 49.9134 111.855 49.7504 112.266 49.4244C112.676 49.0984 112.98 48.6697 113.177 48.1385C113.374 47.6072 113.473 47.0317 113.473 46.4119C113.473 45.7921 113.374 45.2146 113.177 44.6793C112.98 44.1441 112.676 43.7114 112.266 43.3814C111.855 43.0514 111.332 42.8864 110.696 42.8864C110.06 42.8864 109.537 43.0514 109.126 43.3814C108.716 43.7114 108.412 44.1441 108.215 44.6793C108.018 45.2146 107.919 45.7921 107.919 46.4119C107.919 47.0317 108.018 47.6072 108.215 48.1385C108.412 48.6697 108.716 49.0984 109.126 49.4244C109.537 49.7504 110.06 49.9134 110.696 49.9134ZM118.497 45.4219V51H117.073V41.7273H118.449V43.1761H118.57C118.787 42.7053 119.117 42.3269 119.56 42.0412C120.002 41.7514 120.574 41.6065 121.274 41.6065C121.902 41.6065 122.451 41.7353 122.922 41.9929C123.393 42.2464 123.759 42.6328 124.021 43.152C124.283 43.6671 124.413 44.3191 124.413 45.108V51H122.989V45.2045C122.989 44.4761 122.8 43.9086 122.421 43.5021C122.043 43.0916 121.524 42.8864 120.864 42.8864C120.409 42.8864 120.002 42.985 119.644 43.1822C119.29 43.3794 119.01 43.6671 118.805 44.0455C118.6 44.4238 118.497 44.8826 118.497 45.4219ZM133.585 43.804L132.305 44.1662C132.225 43.9529 132.106 43.7456 131.949 43.5444C131.796 43.3391 131.587 43.1701 131.321 43.0373C131.056 42.9045 130.715 42.8381 130.301 42.8381C129.733 42.8381 129.261 42.9689 128.882 43.2305C128.508 43.488 128.321 43.8161 128.321 44.2145C128.321 44.5687 128.45 44.8484 128.707 45.0536C128.965 45.2589 129.367 45.4299 129.915 45.5668L131.291 45.9048C132.12 46.1061 132.738 46.4139 133.144 46.8285C133.551 47.239 133.754 47.7682 133.754 48.4162C133.754 48.9474 133.601 49.4223 133.295 49.8409C132.993 50.2595 132.571 50.5895 132.028 50.831C131.484 51.0724 130.852 51.1932 130.132 51.1932C129.186 51.1932 128.403 50.9879 127.784 50.5774C127.164 50.1669 126.771 49.5672 126.606 48.7784L127.959 48.4403C128.087 48.9394 128.331 49.3137 128.689 49.5632C129.051 49.8127 129.524 49.9375 130.108 49.9375C130.772 49.9375 131.299 49.7966 131.689 49.5149C132.084 49.2292 132.281 48.8871 132.281 48.4886C132.281 48.1667 132.168 47.897 131.943 47.6797C131.718 47.4583 131.372 47.2933 130.905 47.1847L129.359 46.8224C128.51 46.6212 127.886 46.3093 127.488 45.8867C127.093 45.4601 126.896 44.9268 126.896 44.2869C126.896 43.7637 127.043 43.3009 127.337 42.8984C127.635 42.496 128.039 42.18 128.55 41.9506C129.065 41.7212 129.649 41.6065 130.301 41.6065C131.219 41.6065 131.939 41.8078 132.462 42.2102C132.989 42.6127 133.364 43.1439 133.585 43.804Z" fill="#050505"/>
<path d="M168.82 89.1151L168.216 91.1747H156.71L157.314 89.1151H168.82ZM163.422 103L156.923 95.0455L156.888 93.554H160.119C160.96 93.554 161.676 93.4356 162.268 93.1989C162.86 92.9562 163.312 92.5952 163.626 92.1158C163.94 91.6304 164.097 91.0208 164.097 90.2869C164.097 89.2038 163.771 88.3545 163.12 87.739C162.469 87.1175 161.469 86.8068 160.119 86.8068H156.71L157.314 84.8182H160.119C161.563 84.8182 162.747 85.0579 163.67 85.5373C164.6 86.0108 165.286 86.6618 165.73 87.4904C166.18 88.3131 166.405 89.2453 166.405 90.2869C166.405 91.228 166.198 92.0951 165.783 92.8881C165.375 93.6753 164.718 94.3086 163.812 94.788C162.913 95.2674 161.723 95.5071 160.244 95.5071H160.19L166.192 102.858V103H163.422ZM168.82 84.8182L168.216 86.8778L159.161 86.8068L159.764 84.8182H168.82ZM177.065 103.249C176.023 103.249 175.085 103.041 174.251 102.627C173.416 102.213 172.747 101.645 172.244 100.923C171.741 100.201 171.466 99.3778 171.419 98.4545H173.549C173.632 99.2772 174.005 99.9579 174.668 100.496C175.337 101.029 176.136 101.295 177.065 101.295C177.811 101.295 178.474 101.121 179.054 100.772C179.639 100.422 180.098 99.9431 180.43 99.3335C180.767 98.7179 180.936 98.0225 180.936 97.2472C180.936 96.4541 180.761 95.7468 180.412 95.1254C180.069 94.498 179.595 94.0038 178.991 93.6428C178.388 93.2817 177.698 93.0982 176.923 93.0923C176.367 93.0864 175.795 93.1722 175.209 93.3498C174.623 93.5214 174.141 93.7434 173.762 94.0156L171.703 93.767L172.804 84.8182H182.25V86.7713H174.65L174.011 92.1335H174.117C174.49 91.8376 174.958 91.592 175.52 91.3967C176.082 91.2013 176.668 91.1037 177.278 91.1037C178.391 91.1037 179.382 91.37 180.252 91.9027C181.128 92.4295 181.815 93.1515 182.312 94.0689C182.815 94.9863 183.066 96.0339 183.066 97.2116C183.066 98.3717 182.806 99.4074 182.285 100.319C181.77 101.224 181.06 101.941 180.154 102.467C179.249 102.988 178.219 103.249 177.065 103.249ZM192.523 103.249C191.186 103.249 190.047 102.885 189.105 102.157C188.164 101.423 187.445 100.36 186.948 98.9695C186.451 97.5727 186.202 95.8859 186.202 93.9091C186.202 91.9441 186.451 90.2662 186.948 88.8754C187.451 87.4786 188.173 86.4132 189.114 85.6793C190.061 84.9395 191.198 84.5696 192.523 84.5696C193.849 84.5696 194.983 84.9395 195.924 85.6793C196.871 86.4132 197.593 87.4786 198.09 88.8754C198.593 90.2662 198.844 91.9441 198.844 93.9091C198.844 95.8859 198.596 97.5727 198.099 98.9695C197.602 100.36 196.882 101.423 195.941 102.157C195 102.885 193.861 103.249 192.523 103.249ZM192.523 101.295C193.849 101.295 194.879 100.656 195.613 99.3778C196.347 98.0994 196.714 96.2765 196.714 93.9091C196.714 92.3348 196.545 90.9942 196.208 89.8874C195.876 88.7807 195.397 87.9373 194.77 87.3572C194.148 86.7772 193.399 86.4872 192.523 86.4872C191.21 86.4872 190.183 87.1353 189.443 88.4315C188.703 89.7217 188.333 91.5476 188.333 93.9091C188.333 95.4834 188.499 96.821 188.83 97.9219C189.162 99.0227 189.638 99.8602 190.26 100.434C190.887 101.008 191.642 101.295 192.523 101.295ZM208.148 103.249C206.811 103.249 205.672 102.885 204.73 102.157C203.789 101.423 203.07 100.36 202.573 98.9695C202.076 97.5727 201.827 95.8859 201.827 93.9091C201.827 91.9441 202.076 90.2662 202.573 88.8754C203.076 87.4786 203.798 86.4132 204.739 85.6793C205.686 84.9395 206.823 84.5696 208.148 84.5696C209.474 84.5696 210.608 84.9395 211.549 85.6793C212.496 86.4132 213.218 87.4786 213.715 88.8754C214.218 90.2662 214.469 91.9441 214.469 93.9091C214.469 95.8859 214.221 97.5727 213.724 98.9695C213.227 100.36 212.507 101.423 211.566 102.157C210.625 102.885 209.486 103.249 208.148 103.249ZM208.148 101.295C209.474 101.295 210.504 100.656 211.238 99.3778C211.972 98.0994 212.339 96.2765 212.339 93.9091C212.339 92.3348 212.17 90.9942 211.833 89.8874C211.501 88.7807 211.022 87.9373 210.395 87.3572C209.773 86.7772 209.024 86.4872 208.148 86.4872C206.835 86.4872 205.808 87.1353 205.068 88.4315C204.328 89.7217 203.958 91.5476 203.958 93.9091C203.958 95.4834 204.124 96.821 204.455 97.9219C204.787 99.0227 205.263 99.8602 205.885 100.434C206.512 101.008 207.267 101.295 208.148 101.295Z" fill="#0A0A0A"/>
<path d="M58.8196 91.1151L58.2159 93.1747H46.7102L47.3139 91.1151H58.8196ZM53.4219 105L46.9233 97.0455L46.8878 95.554H50.1193C50.9598 95.554 51.6759 95.4356 52.2678 95.1989C52.8596 94.9562 53.3124 94.5952 53.6261 94.1158C53.9397 93.6304 54.0966 93.0208 54.0966 92.2869C54.0966 91.2038 53.7711 90.3545 53.12 89.739C52.469 89.1175 51.4688 88.8068 50.1193 88.8068H46.7102L47.3139 86.8182H50.1193C51.5634 86.8182 52.7472 87.0579 53.6705 87.5373C54.5997 88.0108 55.2862 88.6618 55.7301 89.4904C56.1799 90.3131 56.4048 91.2453 56.4048 92.2869C56.4048 93.228 56.1977 94.0951 55.7834 94.8881C55.375 95.6753 54.718 96.3086 53.8125 96.788C52.9129 97.2674 51.7232 97.5071 50.2436 97.5071H50.1903L56.1918 104.858V105H53.4219ZM58.8196 86.8182L58.2159 88.8778L49.1605 88.8068L49.7642 86.8182H58.8196Z" fill="white"/>
<path d="M101.151 98.5909V97.6321C101.151 96.9692 101.287 96.3626 101.559 95.8121C101.837 95.2558 102.24 94.8119 102.766 94.4805C103.299 94.1431 103.944 93.9744 104.702 93.9744C105.471 93.9744 106.116 94.1431 106.637 94.4805C107.158 94.8119 107.551 95.2558 107.818 95.8121C108.084 96.3626 108.217 96.9692 108.217 97.6321V98.5909C108.217 99.2538 108.081 99.8634 107.809 100.42C107.543 100.97 107.146 101.414 106.619 101.751C106.098 102.083 105.459 102.249 104.702 102.249C103.932 102.249 103.284 102.083 102.757 101.751C102.231 101.414 101.831 100.97 101.559 100.42C101.287 99.8634 101.151 99.2538 101.151 98.5909ZM102.962 97.6321V98.5909C102.962 99.1413 103.092 99.6355 103.352 100.074C103.613 100.506 104.063 100.722 104.702 100.722C105.323 100.722 105.761 100.506 106.016 100.074C106.276 99.6355 106.406 99.1413 106.406 98.5909V97.6321C106.406 97.0817 106.282 96.5904 106.033 96.1584C105.785 95.7204 105.341 95.5014 104.702 95.5014C104.08 95.5014 103.633 95.7204 103.361 96.1584C103.095 96.5904 102.962 97.0817 102.962 97.6321ZM92.0952 88.1861V87.2273C92.0952 86.5644 92.2313 85.9577 92.5036 85.4073C92.7817 84.851 93.1842 84.4071 93.7109 84.0756C94.2436 83.7383 94.8887 83.5696 95.6463 83.5696C96.4157 83.5696 97.0608 83.7383 97.5817 84.0756C98.1025 84.4071 98.4961 84.851 98.7624 85.4073C99.0288 85.9577 99.1619 86.5644 99.1619 87.2273V88.1861C99.1619 88.849 99.0258 89.4586 98.7536 90.0149C98.4872 90.5653 98.0907 91.0092 97.5639 91.3466C97.0431 91.678 96.4039 91.8438 95.6463 91.8438C94.8769 91.8438 94.2288 91.678 93.7021 91.3466C93.1753 91.0092 92.7758 90.5653 92.5036 90.0149C92.2313 89.4586 92.0952 88.849 92.0952 88.1861ZM93.9062 87.2273V88.1861C93.9062 88.7365 94.0365 89.2307 94.2969 89.6687C94.5573 90.1007 95.0071 90.3168 95.6463 90.3168C96.2678 90.3168 96.7057 90.1007 96.9602 89.6687C97.2206 89.2307 97.3509 88.7365 97.3509 88.1861V87.2273C97.3509 86.6768 97.2266 86.1856 96.978 85.7536C96.7294 85.3156 96.2855 85.0966 95.6463 85.0966C95.0249 85.0966 94.578 85.3156 94.3058 85.7536C94.0394 86.1856 93.9062 86.6768 93.9062 87.2273ZM92.7699 102L105.27 83.8182H107.294L94.794 102H92.7699Z" fill="black"/>
<defs>
<filter id="filter0_d_0_1" x="62.8604" y="84.2727" width="13.8125" height="16.7273" filterUnits="userSpaceOnUse" color-interpolation-filters="sRGB">
<feFlood flood-opacity="0" result="BackgroundImageFix"/>
<feColorMatrix in="SourceAlpha" type="matrix" values="0 0 0 0 0 0 0 0 0 0 0 0 0 0 0 0 0 0 127 0" result="hardAlpha"/>
<feOffset dy="4"/>
<feGaussianBlur stdDeviation="2"/>
<feComposite in2="hardAlpha" operator="out"/>
<feColorMatrix type="matrix" values="0 0 0 0 0 0 0 0 0 0 0 0 0 0 0 0 0 0 0.25 0"/>
<feBlend mode="normal" in2="BackgroundImageFix" result="effect1_dropShadow_0_1"/>
<feBlend mode="normal" in="SourceGraphic" in2="effect1_dropShadow_0_1" result="shape"/>
</filter>
</defs>
</svg>
