<svg width="278" height="238" viewBox="0 0 278 238" fill="none" xmlns="http://www.w3.org/2000/svg">
<rect width="276" height="238" rx="30" fill="white"/>
<path d="M160.076 211V200.091H164.167C165.005 200.091 165.708 200.237 166.276 200.528C166.848 200.819 167.279 201.227 167.571 201.753C167.865 202.275 168.013 202.884 168.013 203.58C168.013 204.279 167.864 204.887 167.565 205.402C167.271 205.913 166.836 206.309 166.26 206.589C165.685 206.866 164.978 207.005 164.14 207.005H161.227V205.364H163.874C164.364 205.364 164.765 205.297 165.078 205.162C165.39 205.023 165.621 204.823 165.77 204.56C165.923 204.294 165.999 203.967 165.999 203.58C165.999 203.193 165.923 202.863 165.77 202.589C165.618 202.312 165.385 202.103 165.072 201.961C164.76 201.815 164.357 201.742 163.863 201.742H162.052V211H160.076ZM165.712 206.057L168.412 211H166.207L163.554 206.057H165.712ZM173.252 211.16C172.431 211.16 171.723 210.989 171.126 210.648C170.533 210.304 170.077 209.817 169.757 209.189C169.438 208.557 169.278 207.813 169.278 206.957C169.278 206.115 169.438 205.377 169.757 204.741C170.08 204.102 170.531 203.605 171.11 203.25C171.689 202.891 172.369 202.712 173.15 202.712C173.655 202.712 174.131 202.793 174.578 202.957C175.029 203.116 175.427 203.365 175.771 203.702C176.119 204.04 176.393 204.469 176.591 204.991C176.79 205.51 176.89 206.128 176.89 206.845V207.436H170.183V206.137H175.041C175.038 205.767 174.958 205.439 174.802 205.151C174.645 204.86 174.427 204.631 174.146 204.464C173.869 204.297 173.546 204.214 173.177 204.214C172.783 204.214 172.437 204.31 172.138 204.501C171.84 204.69 171.607 204.938 171.441 205.247C171.277 205.553 171.194 205.888 171.19 206.254V207.388C171.19 207.864 171.277 208.273 171.451 208.614C171.625 208.951 171.868 209.21 172.181 209.391C172.493 209.569 172.859 209.658 173.278 209.658C173.559 209.658 173.813 209.619 174.04 209.54C174.267 209.459 174.464 209.34 174.631 209.184C174.798 209.027 174.924 208.834 175.009 208.603L176.81 208.805C176.696 209.281 176.48 209.697 176.16 210.052C175.844 210.403 175.439 210.677 174.945 210.872C174.452 211.064 173.887 211.16 173.252 211.16ZM183.981 214.068V209.711H183.901C183.802 209.91 183.658 210.121 183.47 210.345C183.281 210.565 183.033 210.753 182.724 210.909C182.415 211.066 182.026 211.144 181.557 211.144C180.915 211.144 180.339 210.979 179.831 210.648C179.324 210.318 178.922 209.839 178.628 209.21C178.333 208.582 178.185 207.818 178.185 206.92C178.185 206.011 178.335 205.244 178.633 204.619C178.935 203.99 179.341 203.516 179.853 203.196C180.364 202.873 180.934 202.712 181.563 202.712C182.042 202.712 182.436 202.793 182.745 202.957C183.054 203.116 183.299 203.31 183.48 203.537C183.661 203.761 183.802 203.972 183.901 204.171H184.018V202.818H185.915V214.068H183.981ZM182.095 209.562C182.504 209.562 182.852 209.452 183.139 209.232C183.427 209.008 183.645 208.697 183.794 208.299C183.944 207.902 184.018 207.438 184.018 206.909C184.018 206.38 183.944 205.92 183.794 205.529C183.649 205.139 183.432 204.835 183.145 204.619C182.861 204.402 182.511 204.294 182.095 204.294C181.666 204.294 181.307 204.406 181.019 204.629C180.732 204.853 180.515 205.162 180.369 205.556C180.224 205.95 180.151 206.401 180.151 206.909C180.151 207.42 180.224 207.877 180.369 208.278C180.519 208.676 180.737 208.99 181.025 209.221C181.316 209.448 181.673 209.562 182.095 209.562ZM193.111 207.559V202.818H195.039V211H193.169V209.546H193.084C192.9 210.004 192.596 210.379 192.173 210.67C191.754 210.961 191.238 211.107 190.623 211.107C190.087 211.107 189.613 210.988 189.201 210.75C188.793 210.508 188.473 210.158 188.242 209.7C188.011 209.239 187.896 208.681 187.896 208.028V202.818H189.824V207.729C189.824 208.248 189.966 208.66 190.25 208.965C190.535 209.271 190.907 209.423 191.369 209.423C191.653 209.423 191.928 209.354 192.195 209.216C192.461 209.077 192.679 208.871 192.85 208.598C193.024 208.321 193.111 207.974 193.111 207.559ZM200.644 211.16C199.824 211.16 199.115 210.989 198.519 210.648C197.926 210.304 197.469 209.817 197.15 209.189C196.83 208.557 196.67 207.813 196.67 206.957C196.67 206.115 196.83 205.377 197.15 204.741C197.473 204.102 197.924 203.605 198.503 203.25C199.082 202.891 199.762 202.712 200.543 202.712C201.047 202.712 201.523 202.793 201.971 202.957C202.422 203.116 202.819 203.365 203.164 203.702C203.512 204.04 203.785 204.469 203.984 204.991C204.183 205.51 204.282 206.128 204.282 206.845V207.436H197.576V206.137H202.434C202.43 205.767 202.35 205.439 202.194 205.151C202.038 204.86 201.82 204.631 201.539 204.464C201.262 204.297 200.939 204.214 200.57 204.214C200.175 204.214 199.829 204.31 199.531 204.501C199.233 204.69 199 204.938 198.833 205.247C198.67 205.553 198.586 205.888 198.583 206.254V207.388C198.583 207.864 198.67 208.273 198.844 208.614C199.018 208.951 199.261 209.21 199.574 209.391C199.886 209.569 200.252 209.658 200.671 209.658C200.951 209.658 201.205 209.619 201.433 209.54C201.66 209.459 201.857 209.34 202.024 209.184C202.191 209.027 202.317 208.834 202.402 208.603L204.202 208.805C204.089 209.281 203.872 209.697 203.553 210.052C203.237 210.403 202.832 210.677 202.338 210.872C201.844 211.064 201.28 211.16 200.644 211.16ZM212.38 204.981L210.622 205.173C210.573 204.995 210.486 204.828 210.361 204.672C210.241 204.516 210.077 204.39 209.871 204.294C209.665 204.198 209.413 204.15 209.115 204.15C208.714 204.15 208.376 204.237 208.103 204.411C207.833 204.585 207.7 204.81 207.703 205.087C207.7 205.325 207.787 205.519 207.964 205.668C208.146 205.817 208.444 205.94 208.859 206.036L210.255 206.334C211.029 206.501 211.604 206.765 211.981 207.127C212.361 207.49 212.552 207.964 212.556 208.55C212.552 209.065 212.402 209.519 212.103 209.913C211.809 210.304 211.398 210.609 210.873 210.83C210.347 211.05 209.744 211.16 209.062 211.16C208.06 211.16 207.254 210.95 206.643 210.531C206.033 210.109 205.669 209.521 205.551 208.768L207.432 208.587C207.517 208.956 207.698 209.235 207.975 209.423C208.252 209.612 208.612 209.706 209.056 209.706C209.514 209.706 209.882 209.612 210.159 209.423C210.44 209.235 210.58 209.002 210.58 208.725C210.58 208.491 210.489 208.298 210.308 208.145C210.131 207.992 209.854 207.875 209.477 207.793L208.082 207.5C207.297 207.337 206.716 207.062 206.34 206.675C205.963 206.284 205.777 205.79 205.78 205.194C205.777 204.69 205.914 204.253 206.191 203.884C206.471 203.511 206.86 203.223 207.357 203.021C207.858 202.815 208.435 202.712 209.088 202.712C210.047 202.712 210.802 202.916 211.352 203.324C211.906 203.733 212.249 204.285 212.38 204.981ZM218.232 202.818V204.31H213.528V202.818H218.232ZM214.689 200.858H216.618V208.539C216.618 208.798 216.657 208.997 216.735 209.136C216.816 209.271 216.923 209.363 217.054 209.413C217.186 209.462 217.331 209.487 217.491 209.487C217.612 209.487 217.722 209.478 217.821 209.461C217.924 209.443 218.003 209.427 218.056 209.413L218.381 210.92C218.278 210.956 218.13 210.995 217.939 211.037C217.75 211.08 217.52 211.105 217.246 211.112C216.763 211.126 216.328 211.053 215.941 210.893C215.554 210.73 215.247 210.478 215.02 210.137C214.796 209.796 214.686 209.37 214.689 208.859V200.858Z" fill="black"/>
<path d="M46.5966 201.748V200.091H55.3004V201.748H51.9286V211H49.9684V201.748H46.5966ZM59.2755 211.16C58.4765 211.16 57.784 210.984 57.1981 210.632C56.6121 210.281 56.1576 209.789 55.8344 209.157C55.5148 208.525 55.355 207.786 55.355 206.941C55.355 206.096 55.5148 205.355 55.8344 204.72C56.1576 204.084 56.6121 203.591 57.1981 203.239C57.784 202.887 58.4765 202.712 59.2755 202.712C60.0745 202.712 60.767 202.887 61.3529 203.239C61.9388 203.591 62.3916 204.084 62.7112 204.72C63.0344 205.355 63.1959 206.096 63.1959 206.941C63.1959 207.786 63.0344 208.525 62.7112 209.157C62.3916 209.789 61.9388 210.281 61.3529 210.632C60.767 210.984 60.0745 211.16 59.2755 211.16ZM59.2861 209.615C59.7194 209.615 60.0816 209.496 60.3728 209.258C60.664 209.017 60.8806 208.694 61.0226 208.289C61.1682 207.884 61.241 207.433 61.241 206.936C61.241 206.435 61.1682 205.982 61.0226 205.577C60.8806 205.169 60.664 204.844 60.3728 204.603C60.0816 204.361 59.7194 204.24 59.2861 204.24C58.8422 204.24 58.4729 204.361 58.1782 204.603C57.887 204.844 57.6686 205.169 57.523 205.577C57.3809 205.982 57.3099 206.435 57.3099 206.936C57.3099 207.433 57.3809 207.884 57.523 208.289C57.6686 208.694 57.887 209.017 58.1782 209.258C58.4729 209.496 58.8422 209.615 59.2861 209.615ZM64.8326 214.068V202.818H66.7289V204.171H66.8407C66.9402 203.972 67.0804 203.761 67.2615 203.537C67.4426 203.31 67.6877 203.116 67.9966 202.957C68.3056 202.793 68.6998 202.712 69.1792 202.712C69.8113 202.712 70.3812 202.873 70.889 203.196C71.4004 203.516 71.8052 203.99 72.1035 204.619C72.4054 205.244 72.5563 206.011 72.5563 206.92C72.5563 207.818 72.4089 208.582 72.1142 209.21C71.8194 209.839 71.4181 210.318 70.9103 210.648C70.4025 210.979 69.8272 211.144 69.1845 211.144C68.7157 211.144 68.3269 211.066 68.0179 210.909C67.709 210.753 67.4604 210.565 67.2722 210.345C67.0875 210.121 66.9437 209.91 66.8407 209.711H66.7608V214.068H64.8326ZM66.7235 206.909C66.7235 207.438 66.7981 207.902 66.9473 208.299C67.1 208.697 67.3184 209.008 67.6025 209.232C67.8901 209.452 68.2381 209.562 68.6465 209.562C69.0726 209.562 69.4295 209.448 69.7172 209.221C70.0048 208.99 70.2214 208.676 70.367 208.278C70.5162 207.877 70.5907 207.42 70.5907 206.909C70.5907 206.401 70.5179 205.95 70.3723 205.556C70.2267 205.162 70.0101 204.853 69.7225 204.629C69.4348 204.406 69.0762 204.294 68.6465 204.294C68.2346 204.294 67.8848 204.402 67.5971 204.619C67.3095 204.835 67.0911 205.139 66.9419 205.529C66.7963 205.92 66.7235 206.38 66.7235 206.909ZM83.1431 207.559V202.818H85.0714V211H83.2017V209.546H83.1165C82.9318 210.004 82.6282 210.379 82.2056 210.67C81.7866 210.961 81.2699 211.107 80.6555 211.107C80.1193 211.107 79.6452 210.988 79.2333 210.75C78.8249 210.508 78.5053 210.158 78.2745 209.7C78.0437 209.239 77.9283 208.681 77.9283 208.028V202.818H79.8565V207.729C79.8565 208.248 79.9986 208.66 80.2827 208.965C80.5668 209.271 80.9396 209.423 81.4013 209.423C81.6854 209.423 81.9606 209.354 82.2269 209.216C82.4933 209.077 82.7116 208.871 82.8821 208.598C83.0561 208.321 83.1431 207.974 83.1431 207.559ZM87.0542 214.068V202.818H88.9506V204.171H89.0624C89.1618 203.972 89.3021 203.761 89.4832 203.537C89.6643 203.31 89.9094 203.116 90.2183 202.957C90.5273 202.793 90.9214 202.712 91.4008 202.712C92.0329 202.712 92.6029 202.873 93.1107 203.196C93.6221 203.516 94.0269 203.99 94.3252 204.619C94.627 205.244 94.778 206.011 94.778 206.92C94.778 207.818 94.6306 208.582 94.3358 209.21C94.0411 209.839 93.6398 210.318 93.132 210.648C92.6242 210.979 92.0489 211.144 91.4062 211.144C90.9374 211.144 90.5486 211.066 90.2396 210.909C89.9307 210.753 89.6821 210.565 89.4939 210.345C89.3092 210.121 89.1654 209.91 89.0624 209.711H88.9825V214.068H87.0542ZM88.9452 206.909C88.9452 207.438 89.0198 207.902 89.1689 208.299C89.3216 208.697 89.54 209.008 89.8241 209.232C90.1118 209.452 90.4598 209.562 90.8682 209.562C91.2943 209.562 91.6512 209.448 91.9388 209.221C92.2265 208.99 92.4431 208.676 92.5887 208.278C92.7378 207.877 92.8124 207.42 92.8124 206.909C92.8124 206.401 92.7396 205.95 92.594 205.556C92.4484 205.162 92.2318 204.853 91.9442 204.629C91.6565 204.406 91.2979 204.294 90.8682 204.294C90.4562 204.294 90.1064 204.402 89.8188 204.619C89.5312 204.835 89.3128 205.139 89.1636 205.529C89.018 205.92 88.9452 206.38 88.9452 206.909Z" fill="#020202"/>
<path d="M40.6634 71.5611L39.68 75.1896H21.3018L22.299 71.5611H40.6634ZM31.4258 93L21.7312 81.3388L21.7173 78.2642H26.5092C27.6541 78.2642 28.6097 78.0749 29.3761 77.6964C30.1516 77.3086 30.7379 76.7685 31.1349 76.076C31.5412 75.3743 31.7443 74.5526 31.7443 73.6108C31.7443 72.1982 31.3288 71.0625 30.4979 70.2038C29.6669 69.3452 28.3374 68.9158 26.5092 68.9158H21.3018L22.3821 64.6364H26.5092C28.8359 64.6364 30.761 64.9964 32.2844 65.7166C33.8171 66.4276 34.962 67.4339 35.7191 68.7358C36.4854 70.0376 36.8686 71.5611 36.8686 73.3061C36.8686 74.848 36.587 76.2237 36.0238 77.4332C35.4606 78.6428 34.5742 79.6353 33.3647 80.4109C32.1552 81.1864 30.5717 81.7035 28.6143 81.962L28.4482 82.0174L37.201 92.7507V93H31.4258ZM40.6911 64.6364L39.68 68.3203L24.7781 68.2649L25.7891 64.6364H40.6911ZM55.9947 64.6364V93H50.8565V69.636H50.6903L44.0565 73.8739V69.1651L51.1058 64.6364H55.9947ZM63.1964 93V89.2884L73.0433 79.6353C73.9851 78.6843 74.7699 77.8395 75.3977 77.1009C76.0256 76.3622 76.4964 75.6467 76.8104 74.9542C77.1243 74.2617 77.2812 73.5231 77.2812 72.7383C77.2812 71.8427 77.0781 71.0763 76.6719 70.4393C76.2656 69.793 75.707 69.2944 74.9961 68.9435C74.2852 68.5927 73.4773 68.4173 72.5724 68.4173C71.6399 68.4173 70.8228 68.6111 70.1211 68.9989C69.4194 69.3775 68.8746 69.9176 68.4869 70.6193C68.1083 71.321 67.919 72.1566 67.919 73.1261H63.0302C63.0302 71.3256 63.4411 69.7607 64.2628 68.4311C65.0845 67.1016 66.2156 66.0721 67.6559 65.3427C69.1055 64.6133 70.7674 64.2486 72.6417 64.2486C74.5437 64.2486 76.2148 64.604 77.6552 65.315C79.0955 66.0259 80.2127 67 81.0067 68.2372C81.81 69.4744 82.2116 70.8871 82.2116 72.4751C82.2116 73.5369 82.0085 74.5803 81.6023 75.6051C81.196 76.63 80.4805 77.7656 79.4556 79.0121C78.44 80.2585 77.0135 81.7681 75.1761 83.5408L70.2873 88.5128V88.7067H82.641V93H63.1964ZM97.9031 93.5401C95.6225 93.5401 93.6651 92.9631 92.0309 91.8089C90.4059 90.6456 89.1548 88.9698 88.2777 86.7816C87.4098 84.5842 86.9759 81.9389 86.9759 78.8459C86.9851 75.7528 87.4237 73.1214 88.2915 70.9517C89.1687 68.7727 90.4197 67.1108 92.0447 65.9659C93.679 64.821 95.6317 64.2486 97.9031 64.2486C100.174 64.2486 102.127 64.821 103.761 65.9659C105.396 67.1108 106.647 68.7727 107.515 70.9517C108.392 73.1307 108.83 75.7621 108.83 78.8459C108.83 81.9482 108.392 84.598 107.515 86.7955C106.647 88.9837 105.396 90.6548 103.761 91.8089C102.136 92.9631 100.184 93.5401 97.9031 93.5401ZM97.9031 89.2053C99.6758 89.2053 101.075 88.3327 102.099 86.5877C103.134 84.8335 103.651 82.2528 103.651 78.8459C103.651 76.593 103.415 74.7003 102.944 73.1676C102.473 71.6349 101.809 70.4808 100.95 69.7053C100.091 68.9205 99.0756 68.5281 97.9031 68.5281C96.1396 68.5281 94.7454 69.4052 93.7205 71.1594C92.6957 72.9045 92.1786 75.4666 92.1694 78.8459C92.1602 81.108 92.3864 83.0099 92.848 84.5518C93.3189 86.0937 93.9837 87.2571 94.8423 88.0419C95.701 88.8175 96.7212 89.2053 97.9031 89.2053ZM123.916 93.5401C121.635 93.5401 119.678 92.9631 118.044 91.8089C116.419 90.6456 115.168 88.9698 114.29 86.7816C113.422 84.5842 112.989 81.9389 112.989 78.8459C112.998 75.7528 113.436 73.1214 114.304 70.9517C115.181 68.7727 116.432 67.1108 118.057 65.9659C119.692 64.821 121.644 64.2486 123.916 64.2486C126.187 64.2486 128.14 64.821 129.774 65.9659C131.408 67.1108 132.659 68.7727 133.527 70.9517C134.404 73.1307 134.843 75.7621 134.843 78.8459C134.843 81.9482 134.404 84.598 133.527 86.7955C132.659 88.9837 131.408 90.6548 129.774 91.8089C128.149 92.9631 126.196 93.5401 123.916 93.5401ZM123.916 89.2053C125.688 89.2053 127.087 88.3327 128.112 86.5877C129.146 84.8335 129.663 82.2528 129.663 78.8459C129.663 76.593 129.428 74.7003 128.957 73.1676C128.486 71.6349 127.821 70.4808 126.963 69.7053C126.104 68.9205 125.088 68.5281 123.916 68.5281C122.152 68.5281 120.758 69.4052 119.733 71.1594C118.708 72.9045 118.191 75.4666 118.182 78.8459C118.173 81.108 118.399 83.0099 118.861 84.5518C119.332 86.0937 119.996 87.2571 120.855 88.0419C121.714 88.8175 122.734 89.2053 123.916 89.2053ZM149.928 93.5401C147.648 93.5401 145.691 92.9631 144.056 91.8089C142.431 90.6456 141.18 88.9698 140.303 86.7816C139.435 84.5842 139.001 81.9389 139.001 78.8459C139.01 75.7528 139.449 73.1214 140.317 70.9517C141.194 68.7727 142.445 67.1108 144.07 65.9659C145.704 64.821 147.657 64.2486 149.928 64.2486C152.2 64.2486 154.153 64.821 155.787 65.9659C157.421 67.1108 158.672 68.7727 159.54 70.9517C160.417 73.1307 160.856 75.7621 160.856 78.8459C160.856 81.9482 160.417 84.598 159.54 86.7955C158.672 88.9837 157.421 90.6548 155.787 91.8089C154.162 92.9631 152.209 93.5401 149.928 93.5401ZM149.928 89.2053C151.701 89.2053 153.1 88.3327 154.125 86.5877C155.159 84.8335 155.676 82.2528 155.676 78.8459C155.676 76.593 155.441 74.7003 154.97 73.1676C154.499 71.6349 153.834 70.4808 152.975 69.7053C152.117 68.9205 151.101 68.5281 149.928 68.5281C148.165 68.5281 146.771 69.4052 145.746 71.1594C144.721 72.9045 144.204 75.4666 144.195 78.8459C144.186 81.108 144.412 83.0099 144.873 84.5518C145.344 86.0937 146.009 87.2571 146.868 88.0419C147.726 88.8175 148.747 89.2053 149.928 89.2053Z" fill="black"/>
<path d="M19.1477 33.3636H21.7273L25.1818 41.7955H25.3182L28.7727 33.3636H31.3523V45H29.3295V37.0057H29.2216L26.0057 44.9659H24.4943L21.2784 36.9886H21.1705V45H19.1477V33.3636ZM34.8352 48.2727C34.5549 48.2727 34.2955 48.25 34.0568 48.2045C33.822 48.1629 33.6345 48.1136 33.4943 48.0568L33.9716 46.4545C34.2708 46.5417 34.5379 46.5833 34.7727 46.5795C35.0076 46.5758 35.214 46.5019 35.392 46.358C35.5739 46.2178 35.7273 45.983 35.8523 45.6534L36.0284 45.1818L32.8636 36.2727H35.0455L37.0568 42.8636H37.1477L39.1648 36.2727H41.3523L37.858 46.0568C37.6951 46.5189 37.4792 46.9148 37.2102 47.2443C36.9413 47.5777 36.6117 47.8314 36.2216 48.0057C35.8352 48.1837 35.3731 48.2727 34.8352 48.2727ZM48.3295 45H46.0795L50.1761 33.3636H52.7784L56.8807 45H54.6307L51.5227 35.75H51.4318L48.3295 45ZM48.4034 40.4375H54.5398V42.1307H48.4034V40.4375ZM65.0241 36.2727L61.9162 45H59.6435L56.5355 36.2727H58.7287L60.7344 42.7557H60.8253L62.8366 36.2727H65.0241ZM68.7088 45.1761C68.1558 45.1761 67.6577 45.0777 67.2145 44.8807C66.7751 44.6799 66.4266 44.3845 66.169 43.9943C65.9152 43.6042 65.7884 43.1231 65.7884 42.5511C65.7884 42.0587 65.8793 41.6515 66.0611 41.3295C66.2429 41.0076 66.491 40.75 66.8054 40.5568C67.1198 40.3636 67.474 40.2178 67.8679 40.1193C68.2656 40.017 68.6766 39.9432 69.1009 39.8977C69.6122 39.8447 70.027 39.7973 70.3452 39.7557C70.6634 39.7102 70.8944 39.642 71.0384 39.5511C71.1861 39.4564 71.2599 39.3106 71.2599 39.1136V39.0795C71.2599 38.6515 71.133 38.3201 70.8793 38.0852C70.6255 37.8504 70.2599 37.733 69.7827 37.733C69.2789 37.733 68.8793 37.8428 68.5838 38.0625C68.2921 38.2822 68.0952 38.5417 67.9929 38.8409L66.0724 38.5682C66.224 38.0379 66.474 37.5947 66.8224 37.2386C67.1709 36.8788 67.5971 36.6098 68.1009 36.4318C68.6046 36.25 69.1615 36.1591 69.7713 36.1591C70.1918 36.1591 70.6103 36.2083 71.027 36.3068C71.4437 36.4053 71.8243 36.5682 72.169 36.7955C72.5137 37.0189 72.7902 37.3239 72.9986 37.7102C73.2107 38.0966 73.3168 38.5795 73.3168 39.1591V45H71.3395V43.8011H71.2713C71.1463 44.0436 70.9702 44.2708 70.7429 44.483C70.5194 44.6913 70.2372 44.8598 69.8963 44.9886C69.5592 45.1136 69.1634 45.1761 68.7088 45.1761ZM69.2429 43.6648C69.6558 43.6648 70.0137 43.5833 70.3168 43.4205C70.6198 43.2538 70.8527 43.0341 71.0156 42.7614C71.1823 42.4886 71.2656 42.1913 71.2656 41.8693V40.8409C71.2012 40.8939 71.0914 40.9432 70.9361 40.9886C70.7846 41.0341 70.6141 41.0739 70.4247 41.108C70.2353 41.142 70.0478 41.1723 69.8622 41.1989C69.6766 41.2254 69.5156 41.2481 69.3793 41.267C69.0724 41.3087 68.7978 41.3769 68.5554 41.4716C68.313 41.5663 68.1217 41.6989 67.9815 41.8693C67.8414 42.036 67.7713 42.2519 67.7713 42.517C67.7713 42.8958 67.9096 43.1818 68.1861 43.375C68.4626 43.5682 68.8149 43.6648 69.2429 43.6648ZM75.3849 45V36.2727H77.4418V45H75.3849ZM76.419 35.0341C76.0933 35.0341 75.813 34.9261 75.5781 34.7102C75.3433 34.4905 75.2259 34.2273 75.2259 33.9205C75.2259 33.6098 75.3433 33.3466 75.5781 33.1307C75.813 32.911 76.0933 32.8011 76.419 32.8011C76.7486 32.8011 77.0289 32.911 77.2599 33.1307C77.4948 33.3466 77.6122 33.6098 77.6122 33.9205C77.6122 34.2273 77.4948 34.4905 77.2599 34.7102C77.0289 34.9261 76.7486 35.0341 76.419 35.0341ZM81.6136 33.3636V45H79.5568V33.3636H81.6136ZM86.2401 45.1761C85.687 45.1761 85.1889 45.0777 84.7457 44.8807C84.3063 44.6799 83.9579 44.3845 83.7003 43.9943C83.4465 43.6042 83.3196 43.1231 83.3196 42.5511C83.3196 42.0587 83.4105 41.6515 83.5923 41.3295C83.7741 41.0076 84.0223 40.75 84.3366 40.5568C84.651 40.3636 85.0052 40.2178 85.3991 40.1193C85.7969 40.017 86.2079 39.9432 86.6321 39.8977C87.1435 39.8447 87.5582 39.7973 87.8764 39.7557C88.1946 39.7102 88.4257 39.642 88.5696 39.5511C88.7173 39.4564 88.7912 39.3106 88.7912 39.1136V39.0795C88.7912 38.6515 88.6643 38.3201 88.4105 38.0852C88.1567 37.8504 87.7912 37.733 87.3139 37.733C86.8101 37.733 86.4105 37.8428 86.1151 38.0625C85.8234 38.2822 85.6264 38.5417 85.5241 38.8409L83.6037 38.5682C83.7552 38.0379 84.0052 37.5947 84.3537 37.2386C84.7022 36.8788 85.1283 36.6098 85.6321 36.4318C86.1359 36.25 86.6927 36.1591 87.3026 36.1591C87.723 36.1591 88.1416 36.2083 88.5582 36.3068C88.9749 36.4053 89.3556 36.5682 89.7003 36.7955C90.045 37.0189 90.3215 37.3239 90.5298 37.7102C90.742 38.0966 90.848 38.5795 90.848 39.1591V45H88.8707V43.8011H88.8026C88.6776 44.0436 88.5014 44.2708 88.2741 44.483C88.0507 44.6913 87.7685 44.8598 87.4276 44.9886C87.0904 45.1136 86.6946 45.1761 86.2401 45.1761ZM86.7741 43.6648C87.187 43.6648 87.545 43.5833 87.848 43.4205C88.151 43.2538 88.384 43.0341 88.5469 42.7614C88.7135 42.4886 88.7969 42.1913 88.7969 41.8693V40.8409C88.7325 40.8939 88.6226 40.9432 88.4673 40.9886C88.3158 41.0341 88.1454 41.0739 87.956 41.108C87.7666 41.142 87.5791 41.1723 87.3935 41.1989C87.2079 41.2254 87.0469 41.2481 86.9105 41.267C86.6037 41.3087 86.3291 41.3769 86.0866 41.4716C85.8442 41.5663 85.6529 41.6989 85.5128 41.8693C85.3726 42.036 85.3026 42.2519 85.3026 42.517C85.3026 42.8958 85.4408 43.1818 85.7173 43.375C85.9938 43.5682 86.3461 43.6648 86.7741 43.6648ZM93.0071 45V33.3636H95.0639V37.7159H95.1491C95.2552 37.5038 95.4048 37.2784 95.598 37.0398C95.7912 36.7973 96.0526 36.5909 96.3821 36.4205C96.7116 36.2462 97.1321 36.1591 97.6435 36.1591C98.3177 36.1591 98.9257 36.3314 99.4673 36.6761C100.013 37.017 100.445 37.5227 100.763 38.1932C101.085 38.8598 101.246 39.678 101.246 40.6477C101.246 41.6061 101.089 42.4205 100.774 43.0909C100.46 43.7614 100.032 44.2727 99.4901 44.625C98.9484 44.9773 98.3348 45.1534 97.6491 45.1534C97.1491 45.1534 96.7344 45.0701 96.4048 44.9034C96.0753 44.7367 95.8101 44.536 95.6094 44.3011C95.4124 44.0625 95.259 43.8371 95.1491 43.625H95.0298V45H93.0071ZM95.0241 40.6364C95.0241 41.2008 95.1037 41.6951 95.2628 42.1193C95.4257 42.5436 95.6586 42.875 95.9616 43.1136C96.2685 43.3485 96.6397 43.4659 97.0753 43.4659C97.5298 43.4659 97.9105 43.3447 98.2173 43.1023C98.5241 42.8561 98.7552 42.5208 98.9105 42.0966C99.0696 41.6686 99.1491 41.1818 99.1491 40.6364C99.1491 40.0947 99.0715 39.6136 98.9162 39.1932C98.7609 38.7727 98.5298 38.4432 98.223 38.2045C97.9162 37.9659 97.5336 37.8466 97.0753 37.8466C96.6359 37.8466 96.2628 37.9621 95.956 38.1932C95.6491 38.4242 95.4162 38.7481 95.2571 39.1648C95.1018 39.5814 95.0241 40.072 95.0241 40.6364ZM105.051 33.3636V45H102.994V33.3636H105.051ZM111.03 45.1705C110.155 45.1705 109.399 44.9886 108.763 44.625C108.13 44.2576 107.643 43.7386 107.303 43.0682C106.962 42.3939 106.791 41.6004 106.791 40.6875C106.791 39.7898 106.962 39.0019 107.303 38.3239C107.647 37.642 108.128 37.1117 108.746 36.733C109.363 36.3504 110.089 36.1591 110.922 36.1591C111.46 36.1591 111.967 36.2462 112.445 36.4205C112.926 36.5909 113.35 36.8561 113.717 37.2159C114.089 37.5758 114.38 38.0341 114.592 38.5909C114.804 39.1439 114.911 39.803 114.911 40.5682V41.1989H107.757V39.8125H112.939C112.935 39.4186 112.85 39.0682 112.683 38.7614C112.517 38.4508 112.284 38.2064 111.984 38.0284C111.689 37.8504 111.344 37.7614 110.95 37.7614C110.53 37.7614 110.161 37.8636 109.842 38.0682C109.524 38.2689 109.276 38.5341 109.098 38.8636C108.924 39.1894 108.835 39.5473 108.831 39.9375V41.1477C108.831 41.6553 108.924 42.0909 109.109 42.4545C109.295 42.8144 109.554 43.0909 109.888 43.2841C110.221 43.4735 110.611 43.5682 111.058 43.5682C111.357 43.5682 111.628 43.5265 111.871 43.4432C112.113 43.3561 112.323 43.2292 112.501 43.0625C112.679 42.8958 112.814 42.6894 112.905 42.4432L114.825 42.6591C114.704 43.1667 114.473 43.6098 114.132 43.9886C113.795 44.3636 113.363 44.6553 112.837 44.8636C112.31 45.0682 111.708 45.1705 111.03 45.1705ZM120.71 45V33.3636H125.165C126.006 33.3636 126.705 33.4962 127.261 33.7614C127.822 34.0227 128.241 34.3807 128.517 34.8352C128.797 35.2898 128.938 35.8049 128.938 36.3807C128.938 36.8542 128.847 37.2595 128.665 37.5966C128.483 37.9299 128.239 38.2008 127.932 38.4091C127.625 38.6174 127.282 38.767 126.903 38.858V38.9716C127.316 38.9943 127.712 39.1212 128.091 39.3523C128.473 39.5795 128.786 39.9015 129.028 40.3182C129.271 40.7348 129.392 41.2386 129.392 41.8295C129.392 42.4318 129.246 42.9735 128.955 43.4545C128.663 43.9318 128.223 44.3087 127.636 44.5852C127.049 44.8617 126.311 45 125.42 45H120.71ZM122.818 43.2386H125.085C125.85 43.2386 126.402 43.0928 126.739 42.8011C127.08 42.5057 127.25 42.1269 127.25 41.6648C127.25 41.3201 127.165 41.0095 126.994 40.733C126.824 40.4527 126.581 40.233 126.267 40.0739C125.953 39.911 125.578 39.8295 125.142 39.8295H122.818V43.2386ZM122.818 38.3125H124.903C125.267 38.3125 125.595 38.2462 125.886 38.1136C126.178 37.9773 126.407 37.786 126.574 37.5398C126.744 37.2898 126.83 36.9943 126.83 36.6534C126.83 36.2027 126.67 35.8314 126.352 35.5398C126.038 35.2481 125.57 35.1023 124.949 35.1023H122.818V38.3125ZM133.646 45.1761C133.093 45.1761 132.595 45.0777 132.152 44.8807C131.713 44.6799 131.364 44.3845 131.107 43.9943C130.853 43.6042 130.726 43.1231 130.726 42.5511C130.726 42.0587 130.817 41.6515 130.999 41.3295C131.18 41.0076 131.429 40.75 131.743 40.5568C132.057 40.3636 132.411 40.2178 132.805 40.1193C133.203 40.017 133.614 39.9432 134.038 39.8977C134.55 39.8447 134.964 39.7973 135.283 39.7557C135.601 39.7102 135.832 39.642 135.976 39.5511C136.124 39.4564 136.197 39.3106 136.197 39.1136V39.0795C136.197 38.6515 136.071 38.3201 135.817 38.0852C135.563 37.8504 135.197 37.733 134.72 37.733C134.216 37.733 133.817 37.8428 133.521 38.0625C133.23 38.2822 133.033 38.5417 132.93 38.8409L131.01 38.5682C131.161 38.0379 131.411 37.5947 131.76 37.2386C132.108 36.8788 132.535 36.6098 133.038 36.4318C133.542 36.25 134.099 36.1591 134.709 36.1591C135.129 36.1591 135.548 36.2083 135.964 36.3068C136.381 36.4053 136.762 36.5682 137.107 36.7955C137.451 37.0189 137.728 37.3239 137.936 37.7102C138.148 38.0966 138.254 38.5795 138.254 39.1591V45H136.277V43.8011H136.209C136.084 44.0436 135.908 44.2708 135.68 44.483C135.457 44.6913 135.175 44.8598 134.834 44.9886C134.497 45.1136 134.101 45.1761 133.646 45.1761ZM134.18 43.6648C134.593 43.6648 134.951 43.5833 135.254 43.4205C135.557 43.2538 135.79 43.0341 135.953 42.7614C136.12 42.4886 136.203 42.1913 136.203 41.8693V40.8409C136.139 40.8939 136.029 40.9432 135.874 40.9886C135.722 41.0341 135.552 41.0739 135.362 41.108C135.173 41.142 134.985 41.1723 134.8 41.1989C134.614 41.2254 134.453 41.2481 134.317 41.267C134.01 41.3087 133.735 41.3769 133.493 41.4716C133.25 41.5663 133.059 41.6989 132.919 41.8693C132.779 42.036 132.709 42.2519 132.709 42.517C132.709 42.8958 132.847 43.1818 133.124 43.375C133.4 43.5682 133.752 43.6648 134.18 43.6648ZM142.379 33.3636V45H140.322V33.3636H142.379ZM147.006 45.1761C146.453 45.1761 145.955 45.0777 145.511 44.8807C145.072 44.6799 144.723 44.3845 144.466 43.9943C144.212 43.6042 144.085 43.1231 144.085 42.5511C144.085 42.0587 144.176 41.6515 144.358 41.3295C144.54 41.0076 144.788 40.75 145.102 40.5568C145.417 40.3636 145.771 40.2178 146.165 40.1193C146.563 40.017 146.973 39.9432 147.398 39.8977C147.909 39.8447 148.324 39.7973 148.642 39.7557C148.96 39.7102 149.191 39.642 149.335 39.5511C149.483 39.4564 149.557 39.3106 149.557 39.1136V39.0795C149.557 38.6515 149.43 38.3201 149.176 38.0852C148.922 37.8504 148.557 37.733 148.08 37.733C147.576 37.733 147.176 37.8428 146.881 38.0625C146.589 38.2822 146.392 38.5417 146.29 38.8409L144.369 38.5682C144.521 38.0379 144.771 37.5947 145.119 37.2386C145.468 36.8788 145.894 36.6098 146.398 36.4318C146.902 36.25 147.458 36.1591 148.068 36.1591C148.489 36.1591 148.907 36.2083 149.324 36.3068C149.741 36.4053 150.121 36.5682 150.466 36.7955C150.811 37.0189 151.087 37.3239 151.295 37.7102C151.508 38.0966 151.614 38.5795 151.614 39.1591V45H149.636V43.8011H149.568C149.443 44.0436 149.267 44.2708 149.04 44.483C148.816 44.6913 148.534 44.8598 148.193 44.9886C147.856 45.1136 147.46 45.1761 147.006 45.1761ZM147.54 43.6648C147.953 43.6648 148.311 43.5833 148.614 43.4205C148.917 43.2538 149.15 43.0341 149.312 42.7614C149.479 42.4886 149.562 42.1913 149.562 41.8693V40.8409C149.498 40.8939 149.388 40.9432 149.233 40.9886C149.081 41.0341 148.911 41.0739 148.722 41.108C148.532 41.142 148.345 41.1723 148.159 41.1989C147.973 41.2254 147.813 41.2481 147.676 41.267C147.369 41.3087 147.095 41.3769 146.852 41.4716C146.61 41.5663 146.419 41.6989 146.278 41.8693C146.138 42.036 146.068 42.2519 146.068 42.517C146.068 42.8958 146.206 43.1818 146.483 43.375C146.759 43.5682 147.112 43.6648 147.54 43.6648ZM155.739 39.8864V45H153.682V36.2727H155.648V37.7557H155.75C155.951 37.267 156.271 36.8788 156.71 36.5909C157.153 36.303 157.701 36.1591 158.352 36.1591C158.955 36.1591 159.479 36.2879 159.926 36.5455C160.377 36.803 160.725 37.1761 160.972 37.6648C161.222 38.1534 161.345 38.7462 161.341 39.4432V45H159.284V39.7614C159.284 39.178 159.133 38.7216 158.83 38.392C158.53 38.0625 158.116 37.8977 157.585 37.8977C157.225 37.8977 156.905 37.9773 156.625 38.1364C156.348 38.2917 156.131 38.517 155.972 38.8125C155.816 39.108 155.739 39.4659 155.739 39.8864ZM167.239 45.1705C166.367 45.1705 165.619 44.9792 164.994 44.5966C164.373 44.214 163.894 43.6856 163.557 43.0114C163.223 42.3333 163.057 41.553 163.057 40.6705C163.057 39.7841 163.227 39.0019 163.568 38.3239C163.909 37.642 164.39 37.1117 165.011 36.733C165.636 36.3504 166.375 36.1591 167.227 36.1591C167.936 36.1591 168.563 36.2898 169.108 36.5511C169.657 36.8087 170.095 37.1742 170.42 37.6477C170.746 38.1174 170.932 38.6667 170.977 39.2955H169.011C168.932 38.875 168.742 38.5246 168.443 38.2443C168.148 37.9602 167.752 37.8182 167.256 37.8182C166.835 37.8182 166.466 37.9318 166.148 38.1591C165.83 38.3826 165.581 38.7045 165.403 39.125C165.229 39.5455 165.142 40.0492 165.142 40.6364C165.142 41.2311 165.229 41.7424 165.403 42.1705C165.578 42.5947 165.822 42.9223 166.136 43.1534C166.455 43.3807 166.828 43.4943 167.256 43.4943C167.559 43.4943 167.83 43.4375 168.068 43.3239C168.311 43.2064 168.513 43.0379 168.676 42.8182C168.839 42.5985 168.951 42.3314 169.011 42.017H170.977C170.928 42.6345 170.746 43.1818 170.432 43.6591C170.117 44.1326 169.689 44.5038 169.148 44.7727C168.606 45.0379 167.97 45.1705 167.239 45.1705ZM176.53 45.1705C175.655 45.1705 174.899 44.9886 174.263 44.625C173.63 44.2576 173.143 43.7386 172.803 43.0682C172.462 42.3939 172.291 41.6004 172.291 40.6875C172.291 39.7898 172.462 39.0019 172.803 38.3239C173.147 37.642 173.628 37.1117 174.246 36.733C174.863 36.3504 175.589 36.1591 176.422 36.1591C176.96 36.1591 177.467 36.2462 177.945 36.4205C178.426 36.5909 178.85 36.8561 179.217 37.2159C179.589 37.5758 179.88 38.0341 180.092 38.5909C180.304 39.1439 180.411 39.803 180.411 40.5682V41.1989H173.257V39.8125H178.439C178.435 39.4186 178.35 39.0682 178.183 38.7614C178.017 38.4508 177.784 38.2064 177.484 38.0284C177.189 37.8504 176.844 37.7614 176.45 37.7614C176.03 37.7614 175.661 37.8636 175.342 38.0682C175.024 38.2689 174.776 38.5341 174.598 38.8636C174.424 39.1894 174.335 39.5473 174.331 39.9375V41.1477C174.331 41.6553 174.424 42.0909 174.609 42.4545C174.795 42.8144 175.054 43.0909 175.388 43.2841C175.721 43.4735 176.111 43.5682 176.558 43.5682C176.857 43.5682 177.128 43.5265 177.371 43.4432C177.613 43.3561 177.823 43.2292 178.001 43.0625C178.179 42.8958 178.314 42.6894 178.405 42.4432L180.325 42.6591C180.204 43.1667 179.973 43.6098 179.632 43.9886C179.295 44.3636 178.863 44.6553 178.337 44.8636C177.81 45.0682 177.208 45.1705 176.53 45.1705Z" fill="black"/>
<line x1="2" y1="119.5" x2="278" y2="119.5" stroke="black"/>
<path d="M69.125 170.375H73.875V160.875H83.375V156.125H73.875V146.625H69.125V156.125H59.625V160.875H69.125V170.375ZM71.5 182.25C68.2146 182.25 65.1271 181.636 62.2375 180.409C59.3479 179.143 56.8344 177.441 54.6969 175.303C52.5594 173.166 50.8573 170.652 49.5906 167.762C48.3635 164.873 47.75 161.785 47.75 158.5C47.75 155.215 48.3635 152.127 49.5906 149.237C50.8573 146.348 52.5594 143.834 54.6969 141.697C56.8344 139.559 59.3479 137.877 62.2375 136.65C65.1271 135.383 68.2146 134.75 71.5 134.75C74.7854 134.75 77.8729 135.383 80.7625 136.65C83.6521 137.877 86.1656 139.559 88.3031 141.697C90.4406 143.834 92.1229 146.348 93.35 149.237C94.6167 152.127 95.25 155.215 95.25 158.5C95.25 161.785 94.6167 164.873 93.35 167.762C92.1229 170.652 90.4406 173.166 88.3031 175.303C86.1656 177.441 83.6521 179.143 80.7625 180.409C77.8729 181.636 74.7854 182.25 71.5 182.25ZM71.5 177.5C76.8042 177.5 81.2969 175.659 84.9781 171.978C88.6594 168.297 90.5 163.804 90.5 158.5C90.5 153.196 88.6594 148.703 84.9781 145.022C81.2969 141.341 76.8042 139.5 71.5 139.5C66.1958 139.5 61.7031 141.341 58.0219 145.022C54.3406 148.703 52.5 153.196 52.5 158.5C52.5 163.804 54.3406 168.297 58.0219 171.978C61.7031 175.659 66.1958 177.5 71.5 177.5Z" fill="#1D1B20"/>
<path d="M192.75 137.25H175.75C174.623 137.25 173.542 137.698 172.745 138.495C171.948 139.292 171.5 140.373 171.5 141.5V175.5C171.5 176.627 171.948 177.708 172.745 178.505C173.542 179.302 174.623 179.75 175.75 179.75H201.25C202.377 179.75 203.458 179.302 204.255 178.505C205.052 177.708 205.5 176.627 205.5 175.5V150M192.75 137.25L205.5 150M192.75 137.25V150H205.5M188.5 171.25V158.5M182.125 164.875H194.875" stroke="#1E1E1E" stroke-width="4" stroke-linecap="round" stroke-linejoin="round"/>
</svg>
