<?xml version="1.0" encoding="UTF-8"?>
<svg version="1.1" xmlns="http://www.w3.org/2000/svg" width="1000" height="1000">
<path d="M0 0 C405.48686662 0 405.48686662 0 470.21533203 34.06494141 C471.88356141 34.93899319 473.56442917 35.78880364 475.24609375 36.63671875 C484.99616263 41.66390782 494.02323685 47.71564399 503 54 C503.5882959 54.40605469 504.1765918 54.81210938 504.78271484 55.23046875 C523.11093223 68.0585791 540.86067292 86.24745743 553 105 C553.59458008 105.91604004 553.59458008 105.91604004 554.20117188 106.85058594 C556.95120817 111.15175108 559.50721502 115.54586388 562 120 C562.3722168 120.65548828 562.74443359 121.31097656 563.12792969 121.98632812 C577.30006995 147.09264311 585.84004809 174.52198057 590 203 C590.17660156 204.14944092 590.35320313 205.29888184 590.53515625 206.4831543 C592.10538934 217.60166633 592.39725465 228.59343859 592.375 239.8125 C592.37512085 240.75277039 592.3752417 241.69304077 592.37536621 242.6618042 C592.34661374 258.43052603 591.1961134 273.52050659 588 289 C587.84515137 289.79857422 587.69030273 290.59714844 587.53076172 291.41992188 C577.72902257 341.48151764 548.70886158 389.1291133 508 420 C507.46117187 420.42055664 506.92234375 420.84111328 506.3671875 421.27441406 C496.48116444 428.98263047 486.13977952 435.270721 475 441 C474.14438477 441.4434375 473.28876953 441.886875 472.40722656 442.34375 C456.74232116 450.37879073 440.65293228 456.38634133 424 462 C431.58087698 475.21874223 439.20859803 488.40407888 447 501.5 C455.4231793 515.6642598 463.64825913 529.93880619 471.85449219 544.22949219 C478.82676335 556.36586529 485.84616745 568.46957765 493 580.5 C501.42283363 594.66446992 509.64825543 608.93879973 517.85449219 623.22949219 C524.82676335 635.36586529 531.84616745 647.46957765 539 659.5 C547.42283363 673.66446992 555.64825543 687.93879973 563.85449219 702.22949219 C572.2788806 716.89351179 580.80057506 731.49403407 589.44140625 746.03125 C590.03711426 747.03414062 590.63282227 748.03703125 591.24658203 749.0703125 C592.41932175 751.02977736 593.60269213 752.98291731 594.79638672 754.9296875 C595.34697754 755.82945312 595.89756836 756.72921875 596.46484375 757.65625 C596.95460693 758.44837891 597.44437012 759.24050781 597.94897461 760.05664062 C599 762 599 762 599 764 C529.37 764 459.74 764 388 764 C383.38 755.42 378.76 746.84 374 738 C369.18074141 729.48435766 369.18074141 729.48435766 364.34765625 720.9765625 C360.28884518 713.78473986 356.42096959 706.49160917 352.54327393 699.20129395 C347.77829816 690.24880449 342.87003453 681.3903485 337.84375 672.58203125 C333.784519 665.4461215 329.87144812 658.23929323 326 651 C321.60031005 642.7735691 317.1199689 634.60480168 312.5 626.5 C307.19326776 617.18870666 302.07948686 607.78383167 297.01733398 598.33764648 C292.55851502 590.02093929 288.0148515 581.75704181 283.40917969 573.52099609 C275.65046766 559.64080545 267.91706758 545.74930935 260.375 531.75 C257.18975624 525.83934886 253.98372877 519.94339542 250.6875 514.09375 C250.14230713 513.12421387 249.59711426 512.15467773 249.03540039 511.15576172 C247.9339252 509.22813964 246.81078334 507.31272822 245.66577148 505.41064453 C242.37643848 499.87663875 240.09892779 494.86883677 238.71899414 488.56005859 C237.02655429 484.28966513 237.02655429 484.28966513 230 477 C208.22 476.505 208.22 476.505 186 476 C186 571.04 186 666.08 186 764 C124.62 764 63.24 764 0 764 C0 511.88 0 259.76 0 0 Z M186 155 C186 217.37 186 279.74 186 344 C213.905625 344.0309375 213.905625 344.0309375 242.375 344.0625 C248.21493652 344.071604 254.05487305 344.08070801 260.07177734 344.09008789 C265.37910432 344.09343556 265.37910432 344.09343556 270.68643188 344.09544373 C273.02147615 344.09696346 275.35651971 344.10044693 277.69155884 344.10557556 C332.23900779 344.31617343 332.23900779 344.31617343 378.31640625 317.84375 C396.19636288 298.89672173 403.16543523 273.59076238 403 248 C401.85214932 220.50282694 394.08990908 196.42210047 374 177 C361.04881004 166.14682212 344.67376829 160.12071624 328.1875 157.25 C327.5382959 157.13438721 326.8890918 157.01877441 326.22021484 156.8996582 C309.07023383 154.21270543 291.37892763 154.86436179 274.0859375 154.90234375 C271.82071965 154.90381804 269.55550146 154.90483574 267.2902832 154.90539551 C258.98518353 154.91059199 250.6800912 154.92455301 242.375 154.9375 C214.469375 154.9684375 214.469375 154.9684375 186 155 Z " fill="#000000" transform="translate(79,93)"/>
<path d="M0 0 C0.71525848 -0.00067474 1.43051697 -0.00134949 2.16744995 -0.00204468 C12.91754602 0.01407241 23.12367492 0.44435278 33.5625 3.25 C34.79871094 3.57871094 36.03492188 3.90742187 37.30859375 4.24609375 C51.43632787 8.49470474 64.54399776 15.4154616 75.5625 25.25 C76.78646484 26.26126953 76.78646484 26.26126953 78.03515625 27.29296875 C96.62286137 43.06522549 107.34581647 65.27720108 110.5625 89.25 C112.60342744 117.16069641 107.30032647 142.90802096 88.7734375 164.5625 C70.39604835 185.39241448 44.68416933 200.18967204 16.5625 202.25 C-20.4951706 203.62862552 -53.27806572 198.46401887 -81.4453125 172.51953125 C-98.76826892 155.78659379 -109.98701684 132.51547544 -110.73828125 108.234375 C-110.7575605 106.15633576 -110.76109391 104.07809906 -110.75 102 C-110.74508545 100.90389404 -110.7401709 99.80778809 -110.73510742 98.6784668 C-110.40559725 75.78680385 -102.47610769 54.57772138 -87.4375 37.25 C-86.79941406 36.47914063 -86.16132812 35.70828125 -85.50390625 34.9140625 C-68.96047915 15.40813035 -43.16427214 3.30179264 -17.91333008 0.4309082 C-11.95320812 -0.00459622 -5.97331238 0.00505262 0 0 Z " fill="#5C17EA" transform="translate(873.4375,662.75)"/>
<path d="M0 0 C1.26465053 2.52930107 0.81136351 3.21598123 0.06640625 5.890625 C-1.27874299 11.54228476 -1.17971782 16.96969647 -1.0625 22.75 C-0.96899481 31.2381938 -1.07607638 39.55269835 -2 48 C-2.33 48 -2.66 48 -3 48 C-5.65815505 32.9085391 -5.44144727 15.7281153 -1 1 C-0.67 0.67 -0.34 0.34 0 0 Z " fill="#4E19D2" transform="translate(767,736)"/>
<path d="M0 0 C1.0415625 0.00902344 2.083125 0.01804687 3.15625 0.02734375 C4.31640625 0.04474609 4.31640625 0.04474609 5.5 0.0625 C5.5 0.3925 5.5 0.7225 5.5 1.0625 C4.28441406 1.19527344 3.06882812 1.32804688 1.81640625 1.46484375 C0.23174516 1.64300091 -1.3528889 1.82139875 -2.9375 2 C-4.14116211 2.13051758 -4.14116211 2.13051758 -5.36914062 2.26367188 C-9.25576664 2.36798394 -9.25576664 2.36798394 -12.5 4.0625 C-14.16617115 4.10313832 -15.83388095 4.105221 -17.5 4.0625 C-18.16 5.3825 -18.82 6.7025 -19.5 8.0625 C-20.38751953 7.95421875 -20.38751953 7.95421875 -21.29296875 7.84375 C-25.38261722 7.36339977 -29.3738531 6.92939849 -33.5 7.0625 C-30.06472107 4.77231405 -26.76192168 3.95380891 -22.8125 3 C-22.12994141 2.82662109 -21.44738281 2.65324219 -20.74414062 2.47460938 C-13.84956222 0.775379 -7.1238429 -0.08095276 0 0 Z " fill="#511AD1" transform="translate(864.5,662.9375)"/>
<path d="M0 0 C13.37916972 0.21998635 26.65623134 2.67086293 39 8 C39 8.33 39 8.66 39 9 C33.97615563 8.37688752 29.26655947 7.35489224 24.375 6 C18.16228176 4.28614669 12.0424646 2.98502164 5.6875 1.9375 C4.61886719 1.76089844 3.55023437 1.58429687 2.44921875 1.40234375 C1.64097656 1.26957031 0.83273437 1.13679687 0 1 C0 0.67 0 0.34 0 0 Z " fill="#4E1CC6" transform="translate(883,663)"/>
<path d="M0 0 C2.375 0.25 2.375 0.25 5 1 C6.0625 2.9375 6.0625 2.9375 7 5 C7.61875 5.28875 8.2375 5.5775 8.875 5.875 C11.97886464 7.51822246 13.20693774 10.05425485 15 13 C12 13 12 13 9.08203125 10.41015625 C7.98442437 9.30190591 6.89485507 8.18565055 5.8125 7.0625 C5.25369141 6.49853516 4.69488281 5.93457031 4.11914062 5.35351562 C0 1.15390339 0 1.15390339 0 0 Z " fill="#4C19C4" transform="translate(784,826)"/>
<path d="M0 0 C0.33 0 0.66 0 1 0 C0.91231752 1.5843317 0.80412671 3.16753567 0.6875 4.75 C0.62949219 5.63171875 0.57148437 6.5134375 0.51171875 7.421875 C-0.07029429 10.35415446 -0.95635098 11.8402919 -3 14 C-3.66 14 -4.32 14 -5 14 C-4.54636829 12.41531323 -4.08688548 10.83230076 -3.625 9.25 C-3.36976563 8.36828125 -3.11453125 7.4865625 -2.8515625 6.578125 C-2.0790066 4.23919428 -1.16374324 2.16557438 0 0 Z " fill="#521ACE" transform="translate(772,721)"/>
<path d="M0 0 C2.66666667 2.66666667 5.33333333 5.33333333 8 8 C7.67 8.66 7.34 9.32 7 10 C6.4225 9.54625 5.845 9.0925 5.25 8.625 C3.2199667 7.15886484 1.26460157 6.05142216 -1 5 C-0.67 3.35 -0.34 1.7 0 0 Z " fill="#5922D0" transform="translate(956,695)"/>
<path d="M0 0 C0.33 0 0.66 0 1 0 C0.54775239 5.91492272 -0.1582605 11.35199888 -2 17 C-2.93423645 13.98968256 -3.04449911 13.13349732 -2 10 C-2.66 9.67 -3.32 9.34 -4 9 C-3.34 8.34 -2.68 7.68 -2 7 C-1.28072705 4.68234271 -0.6090107 2.34904126 0 0 Z " fill="#4F19CE" transform="translate(982,778)"/>
<path d="M0 0 C0.66 0 1.32 0 2 0 C1.60196439 2.88575819 1.20990931 3.82189513 -1.0625 5.75 C-1.701875 6.1625 -2.34125 6.575 -3 7 C-3.66 6.67 -4.32 6.34 -5 6 C-3.38405168 3.95880212 -1.7143618 1.95927063 0 0 Z " fill="#5521D3" transform="translate(794,691)"/>
<path d="M0 0 C0.33 1.32 0.66 2.64 1 4 C-1.31 5.65 -3.62 7.3 -6 9 C-4.47291037 5.56404834 -2.40072955 2.88087546 0 0 Z " fill="#511AC5" transform="translate(786,700)"/>
<path d="M0 0 C3.375 0.25 3.375 0.25 7 1 C8.4375 3.0625 8.4375 3.0625 9 5 C5.22454612 3.90931332 2.52956528 3.0916909 0 0 Z " fill="#4F17C6" transform="translate(810,848)"/>
<path d="M0 0 C0.66 0.33 1.32 0.66 2 1 C1.505 1.61875 1.01 2.2375 0.5 2.875 C-1.19222773 4.83880904 -1.19222773 4.83880904 -1 7 C-2.32 6.67 -3.64 6.34 -5 6 C-3.35 4.02 -1.7 2.04 0 0 Z " fill="#521BC9" transform="translate(801,685)"/>
</svg>
